<svg width="325" height="216" viewBox="0 0 325 216" fill="none" xmlns="http://www.w3.org/2000/svg">
<g clip-path="url(#clip0_1735_10744)">
<rect width="324.39" height="216" transform="matrix(1 0 0 -1 0 216)" fill="white"/>
<rect width="162.195" height="108" fill="#964B00" fill-opacity="0.03"/>
<rect x="161.805" y="108" width="162.195" height="108" fill="#964B00" fill-opacity="0.03"/>
<rect width="58.4838" height="19.4946" fill="#964B00"/>
<rect y="19.4941" width="29.2419" height="19.4946" fill="#964B00"/>
<rect x="324.39" y="216.055" width="58.4838" height="19.4946" transform="rotate(-179.893 324.39 216.055)" fill="#964B00"/>
<rect x="324.425" y="196.561" width="29.2419" height="19.4946" transform="rotate(-179.893 324.425 196.561)" fill="#964B00"/>
<path d="M81.525 36.3569C80.0954 36.3569 78.8283 36.071 77.7236 35.4991C76.6189 34.9143 75.7611 34.089 75.1503 33.0233C74.5395 31.9446 74.234 30.6904 74.234 29.2608C74.234 27.8312 74.5395 26.5836 75.1503 25.5179C75.7611 24.4392 76.6189 23.6074 77.7236 23.0226C78.8283 22.4377 80.0954 22.1453 81.525 22.1453C83.4095 22.1453 84.9821 22.5937 86.2427 23.4904V25.8493C85.112 24.8876 83.6109 24.4067 81.7395 24.4067C80.7387 24.4067 79.8615 24.6081 79.1077 25.011C78.3539 25.4009 77.7691 25.9598 77.3532 26.6876C76.9373 27.4154 76.7294 28.2731 76.7294 29.2608C76.7294 30.2486 76.9373 31.1063 77.3532 31.8341C77.7821 32.5619 78.3734 33.1273 79.1272 33.5302C79.881 33.92 80.7517 34.115 81.7395 34.115C82.7012 34.115 83.559 33.998 84.3127 33.7641C85.0665 33.5172 85.7618 33.1273 86.3987 32.5944V34.9533C85.203 35.889 83.5785 36.3569 81.525 36.3569ZM90.2996 22.4377H99.5205V24.4847H92.7754V28.2276H97.7855V30.2746H92.7754V34.0175H99.5205V36.0645H90.2996V22.4377ZM103.234 22.4377H108.926C110.434 22.4377 111.597 22.8081 112.416 23.5489C113.234 24.2897 113.644 25.3619 113.644 26.7655C113.644 27.7663 113.397 28.6175 112.903 29.3193C112.409 30.0211 111.707 30.5215 110.798 30.8204L113.566 36.0645H111.032L108.4 31.0738H105.71V36.0645H103.234V22.4377ZM108.478 29.0269C109.284 29.0269 109.933 28.8385 110.427 28.4616C110.921 28.0847 111.168 27.5193 111.168 26.7655C111.168 25.245 110.271 24.4847 108.478 24.4847H105.71V29.0269H108.478ZM120.187 24.4847H116.074V22.4377H126.776V24.4847H122.663V36.0645H120.187V24.4847ZM130.282 22.4377H132.758V36.0645H130.282V22.4377ZM137.048 22.4377H146.269V24.5042H139.524V28.3251H144.534V30.1771H139.524V36.0645H137.048V22.4377ZM149.773 22.4377H152.249V36.0645H149.773V22.4377ZM163.44 36.3569C162.011 36.3569 160.744 36.071 159.639 35.4991C158.534 34.9143 157.676 34.089 157.066 33.0233C156.455 31.9446 156.149 30.6904 156.149 29.2608C156.149 27.8312 156.455 26.5836 157.066 25.5179C157.676 24.4392 158.534 23.6074 159.639 23.0226C160.744 22.4377 162.011 22.1453 163.44 22.1453C165.325 22.1453 166.897 22.5937 168.158 23.4904V25.8493C167.027 24.8876 165.526 24.4067 163.655 24.4067C162.654 24.4067 161.777 24.6081 161.023 25.011C160.269 25.4009 159.684 25.9598 159.269 26.6876C158.853 27.4154 158.645 28.2731 158.645 29.2608C158.645 30.2486 158.853 31.1063 159.269 31.8341C159.697 32.5619 160.289 33.1273 161.043 33.5302C161.796 33.92 162.667 34.115 163.655 34.115C164.617 34.115 165.474 33.998 166.228 33.7641C166.982 33.5172 167.677 33.1273 168.314 32.5944V34.9533C167.118 35.889 165.494 36.3569 163.44 36.3569ZM176.789 22.4377H179.186L184.625 36.0645H182.111L180.863 32.9258H175.092L173.864 36.0645H171.33L176.789 22.4377ZM180.181 30.8789L177.978 25.089L175.775 30.8789H180.181ZM189.416 24.4847H185.302V22.4377H196.005V24.4847H191.891V36.0645H189.416V24.4847ZM199.511 22.4377H208.732V24.4847H201.987V28.2276H206.997V30.2746H201.987V34.0175H208.732V36.0645H199.511V22.4377ZM228.262 36.3569C226.898 36.3569 225.663 36.0645 224.558 35.4796C223.467 34.8818 222.602 34.0435 221.966 32.9648C221.342 31.8861 221.03 30.6515 221.03 29.2608C221.03 27.8702 221.342 26.6356 221.966 25.5569C222.602 24.4782 223.467 23.6399 224.558 23.0421C225.663 22.4442 226.898 22.1453 228.262 22.1453C229.614 22.1453 230.836 22.4442 231.927 23.0421C233.032 23.6399 233.896 24.4782 234.52 25.5569C235.157 26.6356 235.475 27.8702 235.475 29.2608C235.475 30.6515 235.157 31.8861 234.52 32.9648C233.896 34.0305 233.032 34.8623 231.927 35.4601C230.836 36.058 229.614 36.3569 228.262 36.3569ZM228.262 34.115C229.133 34.115 229.926 33.92 230.641 33.5302C231.355 33.1273 231.921 32.5619 232.337 31.8341C232.766 31.0933 232.98 30.2356 232.98 29.2608C232.98 28.2991 232.772 27.4543 232.356 26.7265C231.94 25.9858 231.375 25.4139 230.66 25.011C229.945 24.6081 229.146 24.4067 228.262 24.4067C227.379 24.4067 226.573 24.6081 225.845 25.011C225.13 25.4139 224.565 25.9858 224.149 26.7265C223.733 27.4543 223.525 28.2991 223.525 29.2608C223.525 30.2356 223.733 31.0933 224.149 31.8341C224.578 32.5619 225.15 33.1273 225.864 33.5302C226.592 33.92 227.392 34.115 228.262 34.115ZM239.38 22.4377H248.601V24.5042H241.856V28.3251H246.866V30.1771H241.856V36.0645H239.38V22.4377ZM99.173 65.3569C97.7434 65.3569 96.4762 65.071 95.3715 64.4991C94.2668 63.9143 93.4091 63.089 92.7982 62.0233C92.1874 60.9446 91.882 59.6904 91.882 58.2608C91.882 56.8312 92.1874 55.5836 92.7982 54.5179C93.4091 53.4392 94.2668 52.6074 95.3715 52.0226C96.4762 51.4377 97.7434 51.1453 99.173 51.1453C101.057 51.1453 102.63 51.5937 103.891 52.4904V54.8493C102.76 53.8876 101.259 53.4067 99.3874 53.4067C98.3867 53.4067 97.5094 53.6081 96.7556 54.011C96.0018 54.4009 95.417 54.9598 95.0011 55.6876C94.5852 56.4154 94.3773 57.2731 94.3773 58.2608C94.3773 59.2486 94.5852 60.1063 95.0011 60.8341C95.43 61.5619 96.0213 62.1273 96.7751 62.5302C97.5289 62.92 98.3997 63.115 99.3874 63.115C100.349 63.115 101.207 62.998 101.961 62.7641C102.714 62.5172 103.41 62.1273 104.047 61.5944V63.9533C102.851 64.889 101.226 65.3569 99.173 65.3569ZM114.295 65.3569C112.93 65.3569 111.696 65.0645 110.591 64.4796C109.499 63.8818 108.635 63.0435 107.998 61.9648C107.375 60.8861 107.063 59.6515 107.063 58.2608C107.063 56.8702 107.375 55.6356 107.998 54.5569C108.635 53.4782 109.499 52.6399 110.591 52.0421C111.696 51.4442 112.93 51.1453 114.295 51.1453C115.647 51.1453 116.868 51.4442 117.96 52.0421C119.065 52.6399 119.929 53.4782 120.553 54.5569C121.19 55.6356 121.508 56.8702 121.508 58.2608C121.508 59.6515 121.19 60.8861 120.553 61.9648C119.929 63.0305 119.065 63.8623 117.96 64.4601C116.868 65.058 115.647 65.3569 114.295 65.3569ZM114.295 63.115C115.166 63.115 115.959 62.92 116.673 62.5302C117.388 62.1273 117.954 61.5619 118.369 60.8341C118.798 60.0933 119.013 59.2356 119.013 58.2608C119.013 57.2991 118.805 56.4543 118.389 55.7265C117.973 54.9858 117.408 54.4139 116.693 54.011C115.978 53.6081 115.179 53.4067 114.295 53.4067C113.411 53.4067 112.606 53.6081 111.878 54.011C111.163 54.4139 110.598 54.9858 110.182 55.7265C109.766 56.4543 109.558 57.2991 109.558 58.2608C109.558 59.2356 109.766 60.0933 110.182 60.8341C110.611 61.5619 111.182 62.1273 111.897 62.5302C112.625 62.92 113.424 63.115 114.295 63.115ZM125.413 51.4377H127.83L132.392 61.419L136.953 51.4377H139.371V65.0645H137.031V56.2139L132.977 65.0645H131.807L127.752 56.2139V65.0645H125.413V51.4377ZM143.658 51.4377H149.117C150.611 51.4377 151.807 51.8341 152.704 52.6269C153.614 53.4197 154.068 54.5049 154.068 55.8825C154.068 57.3121 153.62 58.4038 152.723 59.1576C151.827 59.8984 150.618 60.2688 149.097 60.2688H146.134V65.0645H143.658V51.4377ZM148.805 58.2219C150.663 58.2219 151.593 57.4421 151.593 55.8825C151.593 54.2839 150.663 53.4847 148.805 53.4847H146.134V58.2219H148.805ZM157.583 51.4377H160.058V63.0175H166.609V65.0645H157.583V51.4377ZM169.831 51.4377H179.052V53.4847H172.307V57.2276H177.317V59.2746H172.307V63.0175H179.052V65.0645H169.831V51.4377ZM186.099 53.4847H181.986V51.4377H192.688V53.4847H188.575V65.0645H186.099V53.4847ZM196.195 51.4377H198.671V65.0645H196.195V51.4377ZM209.803 65.3569C208.439 65.3569 207.204 65.0645 206.099 64.4796C205.008 63.8818 204.143 63.0435 203.507 61.9648C202.883 60.8861 202.571 59.6515 202.571 58.2608C202.571 56.8702 202.883 55.6356 203.507 54.5569C204.143 53.4782 205.008 52.6399 206.099 52.0421C207.204 51.4442 208.439 51.1453 209.803 51.1453C211.155 51.1453 212.377 51.4442 213.468 52.0421C214.573 52.6399 215.437 53.4782 216.061 54.5569C216.698 55.6356 217.016 56.8702 217.016 58.2608C217.016 59.6515 216.698 60.8861 216.061 61.9648C215.437 63.0305 214.573 63.8623 213.468 64.4601C212.377 65.058 211.155 65.3569 209.803 65.3569ZM209.803 63.115C210.674 63.115 211.467 62.92 212.182 62.5302C212.896 62.1273 213.462 61.5619 213.878 60.8341C214.307 60.0933 214.521 59.2356 214.521 58.2608C214.521 57.2991 214.313 56.4543 213.897 55.7265C213.481 54.9858 212.916 54.4139 212.201 54.011C211.486 53.6081 210.687 53.4067 209.803 53.4067C208.92 53.4067 208.114 53.6081 207.386 54.011C206.671 54.4139 206.106 54.9858 205.69 55.7265C205.274 56.4543 205.066 57.2991 205.066 58.2608C205.066 59.2356 205.274 60.0933 205.69 60.8341C206.119 61.5619 206.691 62.1273 207.406 62.5302C208.133 62.92 208.933 63.115 209.803 63.115ZM220.921 51.4377H223.26L229.635 60.9316V51.4377H232.111V65.0645H229.771L223.397 55.5511V65.0645H220.921V51.4377Z" fill="#964B00"/>
<path d="M122.927 88.3095H121.355V87.8463H125.047V88.3095H123.475V92.752H122.927V88.3095ZM126.45 87.8463H126.997V90.0219H129.762V87.8463H130.31V92.752H129.762V90.4851H126.997V92.752H126.45V87.8463ZM132.004 87.8463H132.552V92.752H132.004V87.8463ZM135.546 92.8572C135.275 92.8572 135.008 92.8338 134.746 92.787C134.484 92.7403 134.269 92.6771 134.101 92.5976V92.0782C134.541 92.27 135.013 92.366 135.518 92.366C135.939 92.366 136.248 92.2981 136.445 92.1624C136.646 92.0268 136.747 91.8232 136.747 91.5519C136.747 91.36 136.704 91.208 136.62 91.0957C136.541 90.9834 136.424 90.8898 136.269 90.815C136.115 90.7354 135.848 90.6185 135.469 90.4641C135.006 90.2769 134.669 90.0734 134.459 89.8535C134.253 89.6289 134.15 89.3459 134.15 89.0043C134.15 88.7563 134.215 88.5364 134.346 88.3446C134.482 88.1528 134.672 88.0054 134.915 87.9025C135.158 87.7949 135.439 87.7411 135.757 87.7411C136.014 87.7411 136.246 87.7621 136.452 87.8042C136.662 87.8417 136.868 87.9048 137.069 87.9937V88.492C136.676 88.3189 136.265 88.2323 135.834 88.2323C135.46 88.2323 135.177 88.3002 134.985 88.4359C134.793 88.5715 134.697 88.761 134.697 89.0043C134.697 89.1681 134.737 89.3084 134.817 89.4254C134.896 89.5424 135.02 89.65 135.189 89.7482C135.362 89.8465 135.598 89.9541 135.897 90.0711C136.234 90.2021 136.499 90.326 136.69 90.443C136.882 90.5553 137.03 90.7003 137.133 90.8781C137.24 91.0512 137.294 91.2758 137.294 91.5519C137.294 91.9683 137.147 92.2911 136.852 92.5204C136.557 92.7449 136.122 92.8572 135.546 92.8572ZM144.639 92.8572C144.143 92.8572 143.698 92.752 143.305 92.5414C142.917 92.3309 142.613 92.0338 142.393 91.6501C142.173 91.2618 142.063 90.8126 142.063 90.3027C142.063 89.7927 142.173 89.3459 142.393 88.9622C142.613 88.5739 142.917 88.2744 143.305 88.0639C143.698 87.8487 144.143 87.7411 144.639 87.7411C145.317 87.7411 145.879 87.9189 146.323 88.2744V88.8078C145.902 88.4288 145.355 88.2393 144.681 88.2393C144.283 88.2393 143.928 88.3236 143.614 88.492C143.301 88.6604 143.055 88.9014 142.877 89.2149C142.699 89.5236 142.611 89.8862 142.611 90.3027C142.611 90.7191 142.699 91.084 142.877 91.3975C143.06 91.7063 143.308 91.9449 143.621 92.1133C143.935 92.2817 144.288 92.366 144.681 92.366C145.032 92.366 145.345 92.3192 145.621 92.2256C145.897 92.132 146.152 91.9776 146.386 91.7624V92.3028C145.97 92.6724 145.387 92.8572 144.639 92.8572ZM147.929 87.8463H151.087V88.3095H148.476V90.064H150.434V90.5272H148.476V92.2888H151.087V92.752H147.929V87.8463ZM152.633 87.8463H154.528C155.038 87.8463 155.424 87.9656 155.686 88.2043C155.953 88.4429 156.086 88.7961 156.086 89.264C156.086 89.6196 155.981 89.9213 155.77 90.1693C155.565 90.4173 155.277 90.574 154.907 90.6395L156.072 92.752H155.504L154.353 90.6676H153.181V92.752H152.633V87.8463ZM154.458 90.2044C154.795 90.2044 155.059 90.1249 155.251 89.9658C155.443 89.8067 155.539 89.5728 155.539 89.264C155.539 88.9178 155.443 88.6721 155.251 88.5271C155.064 88.382 154.8 88.3095 154.458 88.3095H153.181V90.2044H154.458ZM158.677 88.3095H157.105V87.8463H160.796V88.3095H159.224V92.752H158.677V88.3095ZM162.207 87.8463H162.754V92.752H162.207V87.8463ZM164.443 87.8463H167.601V88.3095H164.991V90.064H166.949V90.5272H164.991V92.752H164.443V87.8463ZM169.011 87.8463H169.558V92.752H169.011V87.8463ZM171.248 87.8463H174.406V88.3095H171.795V90.064H173.753V90.5272H171.795V92.2888H174.406V92.752H171.248V87.8463ZM177.257 92.8572C176.986 92.8572 176.719 92.8338 176.457 92.787C176.195 92.7403 175.98 92.6771 175.812 92.5976V92.0782C176.251 92.27 176.724 92.366 177.229 92.366C177.65 92.366 177.959 92.2981 178.156 92.1624C178.357 92.0268 178.457 91.8232 178.457 91.5519C178.457 91.36 178.415 91.208 178.331 91.0957C178.251 90.9834 178.134 90.8898 177.98 90.815C177.826 90.7354 177.559 90.6185 177.18 90.4641C176.717 90.2769 176.38 90.0734 176.169 89.8535C175.964 89.6289 175.861 89.3459 175.861 89.0043C175.861 88.7563 175.926 88.5364 176.057 88.3446C176.193 88.1528 176.382 88.0054 176.626 87.9025C176.869 87.7949 177.15 87.7411 177.468 87.7411C177.725 87.7411 177.957 87.7621 178.163 87.8042C178.373 87.8417 178.579 87.9048 178.78 87.9937V88.492C178.387 88.3189 177.975 88.2323 177.545 88.2323C177.171 88.2323 176.888 88.3002 176.696 88.4359C176.504 88.5715 176.408 88.761 176.408 89.0043C176.408 89.1681 176.448 89.3084 176.527 89.4254C176.607 89.5424 176.731 89.65 176.899 89.7482C177.072 89.8465 177.309 89.9541 177.608 90.0711C177.945 90.2021 178.209 90.326 178.401 90.443C178.593 90.5553 178.74 90.7003 178.843 90.8781C178.951 91.0512 179.005 91.2758 179.005 91.5519C179.005 91.9683 178.857 92.2911 178.563 92.5204C178.268 92.7449 177.833 92.8572 177.257 92.8572ZM185.206 88.3095H183.634V87.8463H187.325V88.3095H185.753V92.752H185.206V88.3095ZM188.728 87.8463H189.276V90.0219H192.041V87.8463H192.588V92.752H192.041V90.4851H189.276V92.752H188.728V87.8463ZM196.093 87.8463H196.606L198.564 92.752H198.002L197.476 91.4396H195.216L194.697 92.752H194.135L196.093 87.8463ZM197.321 90.9764L196.346 88.478L195.377 90.9764H197.321ZM200.525 88.3095H198.953V87.8463H202.644V88.3095H201.072V92.752H200.525V88.3095Z" fill="#964B00"/>
<path d="M74.4185 128.063H74.9051V129.997H77.363V128.063H77.8496V132.424H77.363V130.409H74.9051V132.424H74.4185V128.063ZM80.9651 128.063H81.4205L83.161 132.424H82.662L82.1941 131.257H80.1854L79.7237 132.424H79.2247L80.9651 128.063ZM82.0568 130.846L81.1897 128.625L80.3288 130.846H82.0568ZM85.4163 132.517C85.1751 132.517 84.938 132.497 84.7051 132.455C84.4722 132.413 84.2809 132.357 84.1312 132.287V131.825C84.5221 131.995 84.9422 132.081 85.3913 132.081C85.7656 132.081 86.0401 132.02 86.2148 131.9C86.3936 131.779 86.483 131.598 86.483 131.357C86.483 131.187 86.4456 131.051 86.3707 130.952C86.3 130.852 86.1961 130.769 86.0588 130.702C85.9216 130.631 85.6845 130.527 85.3477 130.39C84.9359 130.224 84.6365 130.043 84.4494 129.847C84.2664 129.648 84.1749 129.396 84.1749 129.093C84.1749 128.872 84.2331 128.677 84.3496 128.506C84.4702 128.336 84.6386 128.205 84.8549 128.113C85.0711 128.018 85.3206 127.97 85.6034 127.97C85.8322 127.97 86.038 127.988 86.221 128.026C86.4082 128.059 86.5912 128.115 86.77 128.194V128.637C86.4207 128.483 86.0547 128.406 85.6721 128.406C85.3394 128.406 85.0877 128.467 84.9172 128.587C84.7467 128.708 84.6615 128.876 84.6615 129.093C84.6615 129.238 84.6968 129.363 84.7675 129.467C84.8382 129.571 84.9484 129.667 85.0981 129.754C85.252 129.841 85.462 129.937 85.7282 130.041C86.0276 130.157 86.2626 130.267 86.4331 130.371C86.6036 130.471 86.7346 130.6 86.8261 130.758C86.9218 130.912 86.9696 131.112 86.9696 131.357C86.9696 131.727 86.8386 132.014 86.5766 132.218C86.3146 132.418 85.9278 132.517 85.4163 132.517ZM92.494 132.517C92.2528 132.517 92.0158 132.497 91.7829 132.455C91.55 132.413 91.3587 132.357 91.209 132.287V131.825C91.5999 131.995 92.0199 132.081 92.4691 132.081C92.8434 132.081 93.1179 132.02 93.2925 131.9C93.4714 131.779 93.5608 131.598 93.5608 131.357C93.5608 131.187 93.5234 131.051 93.4485 130.952C93.3778 130.852 93.2738 130.769 93.1366 130.702C92.9993 130.631 92.7623 130.527 92.4254 130.39C92.0137 130.224 91.7143 130.043 91.5271 129.847C91.3441 129.648 91.2526 129.396 91.2526 129.093C91.2526 128.872 91.3109 128.677 91.4273 128.506C91.5479 128.336 91.7163 128.205 91.9326 128.113C92.1489 128.018 92.3984 127.97 92.6812 127.97C92.9099 127.97 93.1158 127.988 93.2988 128.026C93.4859 128.059 93.6689 128.115 93.8478 128.194V128.637C93.4984 128.483 93.1324 128.406 92.7498 128.406C92.4171 128.406 92.1655 128.467 91.995 128.587C91.8245 128.708 91.7392 128.876 91.7392 129.093C91.7392 129.238 91.7746 129.363 91.8453 129.467C91.916 129.571 92.0262 129.667 92.1759 129.754C92.3298 129.841 92.5398 129.937 92.806 130.041C93.1054 130.157 93.3404 130.267 93.5109 130.371C93.6814 130.471 93.8124 130.6 93.9039 130.758C93.9996 130.912 94.0474 131.112 94.0474 131.357C94.0474 131.727 93.9164 132.014 93.6544 132.218C93.3924 132.418 93.0056 132.517 92.494 132.517ZM97.1271 132.517C96.5532 132.517 96.1186 132.372 95.8233 132.081C95.5322 131.79 95.3867 131.384 95.3867 130.864V128.063H95.8732V130.902C95.8732 131.297 95.9835 131.592 96.2039 131.788C96.4243 131.983 96.732 132.081 97.1271 132.081C97.5222 132.081 97.83 131.983 98.0504 131.788C98.2708 131.592 98.381 131.297 98.381 130.902V128.063H98.8676V130.864C98.8676 131.384 98.72 131.79 98.4247 132.081C98.1336 132.372 97.7011 132.517 97.1271 132.517ZM102.501 132.517C102.06 132.517 101.665 132.424 101.316 132.237C100.971 132.05 100.7 131.785 100.505 131.444C100.31 131.099 100.212 130.7 100.212 130.247C100.212 129.793 100.31 129.396 100.505 129.055C100.7 128.71 100.971 128.444 101.316 128.257C101.665 128.065 102.06 127.97 102.501 127.97C103.104 127.97 103.603 128.128 103.998 128.444V128.918C103.624 128.581 103.138 128.413 102.539 128.413C102.185 128.413 101.869 128.487 101.59 128.637C101.312 128.787 101.093 129.001 100.935 129.28C100.777 129.554 100.698 129.877 100.698 130.247C100.698 130.617 100.777 130.941 100.935 131.22C101.098 131.494 101.318 131.706 101.597 131.856C101.875 132.006 102.189 132.081 102.539 132.081C102.851 132.081 103.129 132.039 103.375 131.956C103.62 131.873 103.847 131.736 104.055 131.544V132.025C103.684 132.353 103.167 132.517 102.501 132.517ZM107.432 132.517C106.991 132.517 106.596 132.424 106.247 132.237C105.902 132.05 105.631 131.785 105.436 131.444C105.24 131.099 105.143 130.7 105.143 130.247C105.143 129.793 105.24 129.396 105.436 129.055C105.631 128.71 105.902 128.444 106.247 128.257C106.596 128.065 106.991 127.97 107.432 127.97C108.035 127.97 108.534 128.128 108.929 128.444V128.918C108.555 128.581 108.068 128.413 107.47 128.413C107.116 128.413 106.8 128.487 106.521 128.637C106.243 128.787 106.024 129.001 105.866 129.28C105.708 129.554 105.629 129.877 105.629 130.247C105.629 130.617 105.708 130.941 105.866 131.22C106.029 131.494 106.249 131.706 106.528 131.856C106.806 132.006 107.12 132.081 107.47 132.081C107.782 132.081 108.06 132.039 108.306 131.956C108.551 131.873 108.778 131.736 108.985 131.544V132.025C108.615 132.353 108.098 132.517 107.432 132.517ZM110.357 128.063H113.164V128.475H110.843V130.035H112.584V130.446H110.843V132.012H113.164V132.424H110.357V128.063ZM115.699 132.517C115.457 132.517 115.22 132.497 114.988 132.455C114.755 132.413 114.563 132.357 114.414 132.287V131.825C114.805 131.995 115.225 132.081 115.674 132.081C116.048 132.081 116.323 132.02 116.497 131.9C116.676 131.779 116.765 131.598 116.765 131.357C116.765 131.187 116.728 131.051 116.653 130.952C116.582 130.852 116.478 130.769 116.341 130.702C116.204 130.631 115.967 130.527 115.63 130.39C115.218 130.224 114.919 130.043 114.732 129.847C114.549 129.648 114.457 129.396 114.457 129.093C114.457 128.872 114.516 128.677 114.632 128.506C114.753 128.336 114.921 128.205 115.137 128.113C115.354 128.018 115.603 127.97 115.886 127.97C116.115 127.97 116.32 127.988 116.503 128.026C116.691 128.059 116.874 128.115 117.052 128.194V128.637C116.703 128.483 116.337 128.406 115.954 128.406C115.622 128.406 115.37 128.467 115.2 128.587C115.029 128.708 114.944 128.876 114.944 129.093C114.944 129.238 114.979 129.363 115.05 129.467C115.121 129.571 115.231 129.667 115.381 129.754C115.534 129.841 115.744 129.937 116.011 130.041C116.31 130.157 116.545 130.267 116.716 130.371C116.886 130.471 117.017 130.6 117.109 130.758C117.204 130.912 117.252 131.112 117.252 131.357C117.252 131.727 117.121 132.014 116.859 132.218C116.597 132.418 116.21 132.517 115.699 132.517ZM119.564 132.517C119.322 132.517 119.085 132.497 118.852 132.455C118.619 132.413 118.428 132.357 118.278 132.287V131.825C118.669 131.995 119.089 132.081 119.539 132.081C119.913 132.081 120.187 132.02 120.362 131.9C120.541 131.779 120.63 131.598 120.63 131.357C120.63 131.187 120.593 131.051 120.518 130.952C120.447 130.852 120.343 130.769 120.206 130.702C120.069 130.631 119.832 130.527 119.495 130.39C119.083 130.224 118.784 130.043 118.597 129.847C118.414 129.648 118.322 129.396 118.322 129.093C118.322 128.872 118.38 128.677 118.497 128.506C118.617 128.336 118.786 128.205 119.002 128.113C119.218 128.018 119.468 127.97 119.751 127.97C119.979 127.97 120.185 127.988 120.368 128.026C120.555 128.059 120.738 128.115 120.917 128.194V128.637C120.568 128.483 120.202 128.406 119.819 128.406C119.487 128.406 119.235 128.467 119.064 128.587C118.894 128.708 118.809 128.876 118.809 129.093C118.809 129.238 118.844 129.363 118.915 129.467C118.985 129.571 119.096 129.667 119.245 129.754C119.399 129.841 119.609 129.937 119.875 130.041C120.175 130.157 120.41 130.267 120.58 130.371C120.751 130.471 120.882 130.6 120.973 130.758C121.069 130.912 121.117 131.112 121.117 131.357C121.117 131.727 120.986 132.014 120.724 132.218C120.462 132.418 120.075 132.517 119.564 132.517ZM122.487 128.063H125.295V128.475H122.974V130.035H124.714V130.446H122.974V132.424H122.487V128.063ZM128.25 132.517C127.676 132.517 127.242 132.372 126.946 132.081C126.655 131.79 126.51 131.384 126.51 130.864V128.063H126.996V130.902C126.996 131.297 127.107 131.592 127.327 131.788C127.547 131.983 127.855 132.081 128.25 132.081C128.645 132.081 128.953 131.983 129.174 131.788C129.394 131.592 129.504 131.297 129.504 130.902V128.063H129.991V130.864C129.991 131.384 129.843 131.79 129.548 132.081C129.257 132.372 128.824 132.517 128.25 132.517ZM131.46 128.063H131.946V132.012H134.267V132.424H131.46V128.063ZM135.483 128.063H135.969V132.012H138.29V132.424H135.483V128.063ZM140.186 130.771L138.602 128.063H139.119L140.429 130.328L141.746 128.063H142.257L140.673 130.771V132.424H140.186V130.771ZM148.785 132.517C148.344 132.517 147.949 132.424 147.6 132.237C147.255 132.05 146.984 131.785 146.789 131.444C146.593 131.099 146.496 130.7 146.496 130.247C146.496 129.793 146.593 129.396 146.789 129.055C146.984 128.71 147.255 128.444 147.6 128.257C147.949 128.065 148.344 127.97 148.785 127.97C149.388 127.97 149.887 128.128 150.282 128.444V128.918C149.908 128.581 149.421 128.413 148.822 128.413C148.469 128.413 148.153 128.487 147.874 128.637C147.596 128.787 147.377 129.001 147.219 129.28C147.061 129.554 146.982 129.877 146.982 130.247C146.982 130.617 147.061 130.941 147.219 131.22C147.381 131.494 147.602 131.706 147.881 131.856C148.159 132.006 148.473 132.081 148.822 132.081C149.134 132.081 149.413 132.039 149.658 131.956C149.904 131.873 150.13 131.736 150.338 131.544V132.025C149.968 132.353 149.45 132.517 148.785 132.517ZM153.71 132.517C153.281 132.517 152.893 132.424 152.543 132.237C152.198 132.045 151.926 131.777 151.726 131.432C151.526 131.087 151.427 130.692 151.427 130.247C151.427 129.802 151.526 129.407 151.726 129.061C151.926 128.716 152.198 128.448 152.543 128.257C152.888 128.065 153.277 127.97 153.71 127.97C154.142 127.97 154.531 128.065 154.876 128.257C155.221 128.448 155.494 128.716 155.694 129.061C155.893 129.407 155.993 129.802 155.993 130.247C155.993 130.692 155.893 131.087 155.694 131.432C155.494 131.777 155.219 132.045 154.87 132.237C154.525 132.424 154.138 132.517 153.71 132.517ZM153.71 132.081C154.042 132.081 154.346 132.006 154.621 131.856C154.895 131.706 155.111 131.494 155.269 131.22C155.427 130.941 155.506 130.617 155.506 130.247C155.506 129.881 155.427 129.56 155.269 129.286C155.115 129.007 154.901 128.793 154.627 128.643C154.356 128.49 154.055 128.413 153.722 128.413C153.385 128.413 153.08 128.487 152.805 128.637C152.531 128.787 152.312 129.001 152.15 129.28C151.992 129.558 151.913 129.881 151.913 130.247C151.913 130.617 151.992 130.941 152.15 131.22C152.308 131.494 152.524 131.706 152.799 131.856C153.073 132.006 153.377 132.081 153.71 132.081ZM157.366 128.063H157.865L159.512 131.663L161.158 128.063H161.657V132.424H161.177V129.055L159.636 132.424H159.387L157.846 129.055V132.424H157.366V128.063ZM163.155 128.063H164.771C165.229 128.063 165.584 128.171 165.838 128.388C166.096 128.604 166.225 128.924 166.225 129.348C166.225 129.777 166.098 130.097 165.844 130.309C165.59 130.521 165.233 130.627 164.771 130.627H163.642V132.424H163.155V128.063ZM164.734 130.215C165.046 130.215 165.291 130.153 165.47 130.028C165.649 129.899 165.738 129.673 165.738 129.348C165.738 129.02 165.649 128.793 165.47 128.668C165.291 128.539 165.046 128.475 164.734 128.475H163.642V130.215H164.734ZM167.471 128.063H167.958V132.012H170.278V132.424H167.471V128.063ZM171.403 128.063H174.21V128.475H171.889V130.035H173.63V130.446H171.889V132.012H174.21V132.424H171.403V128.063ZM176.732 128.475H175.335V128.063H178.616V128.475H177.219V132.424H176.732V128.475ZM179.864 128.063H182.671V128.475H180.35V130.035H182.091V130.446H180.35V132.012H182.671V132.424H179.864V128.063ZM184.045 128.063H185.393C185.858 128.063 186.262 128.151 186.603 128.325C186.948 128.5 187.212 128.749 187.395 129.074C187.578 129.398 187.67 129.781 187.67 130.222C187.67 130.95 187.462 131.498 187.046 131.869C186.63 132.239 186.046 132.424 185.293 132.424H184.045V128.063ZM185.262 132.012C185.919 132.012 186.403 131.862 186.715 131.563C187.027 131.259 187.183 130.812 187.183 130.222C187.183 129.673 187.031 129.244 186.728 128.937C186.424 128.629 185.977 128.475 185.386 128.475H184.532V132.012H185.262ZM193.185 128.475H191.787V128.063H195.068V128.475H193.671V132.424H193.185V128.475ZM196.316 128.063H196.802V129.997H199.26V128.063H199.747V132.424H199.26V130.409H196.802V132.424H196.316V128.063ZM201.247 128.063H204.054V128.475H201.733V130.035H203.474V130.446H201.733V132.012H204.054V132.424H201.247V128.063ZM210.587 132.517C210.146 132.517 209.751 132.424 209.401 132.237C209.056 132.05 208.786 131.785 208.59 131.444C208.395 131.099 208.297 130.7 208.297 130.247C208.297 129.793 208.395 129.396 208.59 129.055C208.786 128.71 209.056 128.444 209.401 128.257C209.751 128.065 210.146 127.97 210.587 127.97C211.19 127.97 211.689 128.128 212.084 128.444V128.918C211.709 128.581 211.223 128.413 210.624 128.413C210.27 128.413 209.954 128.487 209.676 128.637C209.397 128.787 209.179 129.001 209.021 129.28C208.863 129.554 208.784 129.877 208.784 130.247C208.784 130.617 208.863 130.941 209.021 131.22C209.183 131.494 209.403 131.706 209.682 131.856C209.961 132.006 210.275 132.081 210.624 132.081C210.936 132.081 211.215 132.039 211.46 131.956C211.705 131.873 211.932 131.736 212.14 131.544V132.025C211.77 132.353 211.252 132.517 210.587 132.517ZM215.511 132.517C215.083 132.517 214.694 132.424 214.345 132.237C213.999 132.045 213.727 131.777 213.527 131.432C213.328 131.087 213.228 130.692 213.228 130.247C213.228 129.802 213.328 129.407 213.527 129.061C213.727 128.716 213.999 128.448 214.345 128.257C214.69 128.065 215.079 127.97 215.511 127.97C215.944 127.97 216.333 128.065 216.678 128.257C217.023 128.448 217.295 128.716 217.495 129.061C217.695 129.407 217.794 129.802 217.794 130.247C217.794 130.692 217.695 131.087 217.495 131.432C217.295 131.777 217.021 132.045 216.672 132.237C216.326 132.424 215.94 132.517 215.511 132.517ZM215.511 132.081C215.844 132.081 216.148 132.006 216.422 131.856C216.696 131.706 216.913 131.494 217.071 131.22C217.229 130.941 217.308 130.617 217.308 130.247C217.308 129.881 217.229 129.56 217.071 129.286C216.917 129.007 216.703 128.793 216.428 128.643C216.158 128.49 215.856 128.413 215.524 128.413C215.187 128.413 214.881 128.487 214.607 128.637C214.332 128.787 214.114 129.001 213.952 129.28C213.794 129.558 213.715 129.881 213.715 130.247C213.715 130.617 213.794 130.941 213.952 131.22C214.11 131.494 214.326 131.706 214.6 131.856C214.875 132.006 215.179 132.081 215.511 132.081ZM220.876 132.517C220.302 132.517 219.868 132.372 219.573 132.081C219.281 131.79 219.136 131.384 219.136 130.864V128.063H219.622V130.902C219.622 131.297 219.733 131.592 219.953 131.788C220.173 131.983 220.481 132.081 220.876 132.081C221.271 132.081 221.579 131.983 221.8 131.788C222.02 131.592 222.13 131.297 222.13 130.902V128.063H222.617V130.864C222.617 131.384 222.469 131.79 222.174 132.081C221.883 132.372 221.45 132.517 220.876 132.517ZM224.086 128.063H225.77C226.223 128.063 226.567 128.169 226.799 128.381C227.036 128.594 227.155 128.908 227.155 129.323C227.155 129.639 227.061 129.908 226.874 130.128C226.691 130.349 226.436 130.488 226.107 130.546L227.143 132.424H226.637L225.614 130.571H224.572V132.424H224.086V128.063ZM225.708 130.159C226.007 130.159 226.242 130.089 226.413 129.947C226.583 129.806 226.668 129.598 226.668 129.323C226.668 129.016 226.583 128.797 226.413 128.668C226.246 128.539 226.011 128.475 225.708 128.475H224.572V130.159H225.708ZM229.69 132.517C229.448 132.517 229.211 132.497 228.978 132.455C228.746 132.413 228.554 132.357 228.405 132.287V131.825C228.795 131.995 229.216 132.081 229.665 132.081C230.039 132.081 230.313 132.02 230.488 131.9C230.667 131.779 230.756 131.598 230.756 131.357C230.756 131.187 230.719 131.051 230.644 130.952C230.573 130.852 230.469 130.769 230.332 130.702C230.195 130.631 229.958 130.527 229.621 130.39C229.209 130.224 228.91 130.043 228.723 129.847C228.54 129.648 228.448 129.396 228.448 129.093C228.448 128.872 228.506 128.677 228.623 128.506C228.744 128.336 228.912 128.205 229.128 128.113C229.344 128.018 229.594 127.97 229.877 127.97C230.106 127.97 230.311 127.988 230.494 128.026C230.682 128.059 230.865 128.115 231.043 128.194V128.637C230.694 128.483 230.328 128.406 229.945 128.406C229.613 128.406 229.361 128.467 229.191 128.587C229.02 128.708 228.935 128.876 228.935 129.093C228.935 129.238 228.97 129.363 229.041 129.467C229.112 129.571 229.222 129.667 229.371 129.754C229.525 129.841 229.735 129.937 230.002 130.041C230.301 130.157 230.536 130.267 230.706 130.371C230.877 130.471 231.008 130.6 231.099 130.758C231.195 130.912 231.243 131.112 231.243 131.357C231.243 131.727 231.112 132.014 230.85 132.218C230.588 132.418 230.201 132.517 229.69 132.517ZM232.613 128.063H235.421V128.475H233.1V130.035H234.84V130.446H233.1V132.012H235.421V132.424H232.613V128.063ZM241.947 132.517C241.519 132.517 241.13 132.424 240.781 132.237C240.435 132.045 240.163 131.777 239.963 131.432C239.764 131.087 239.664 130.692 239.664 130.247C239.664 129.802 239.764 129.407 239.963 129.061C240.163 128.716 240.435 128.448 240.781 128.257C241.126 128.065 241.515 127.97 241.947 127.97C242.38 127.97 242.768 128.065 243.114 128.257C243.459 128.448 243.731 128.716 243.931 129.061C244.131 129.407 244.23 129.802 244.23 130.247C244.23 130.692 244.131 131.087 243.931 131.432C243.731 131.777 243.457 132.045 243.107 132.237C242.762 132.424 242.375 132.517 241.947 132.517ZM241.947 132.081C242.28 132.081 242.583 132.006 242.858 131.856C243.132 131.706 243.349 131.494 243.507 131.22C243.665 130.941 243.744 130.617 243.744 130.247C243.744 129.881 243.665 129.56 243.507 129.286C243.353 129.007 243.139 128.793 242.864 128.643C242.594 128.49 242.292 128.413 241.96 128.413C241.623 128.413 241.317 128.487 241.043 128.637C240.768 128.787 240.55 129.001 240.388 129.28C240.23 129.558 240.15 129.881 240.15 130.247C240.15 130.617 240.23 130.941 240.388 131.22C240.546 131.494 240.762 131.706 241.036 131.856C241.311 132.006 241.614 132.081 241.947 132.081ZM245.603 128.063H246.071L248.473 131.594V128.063H248.959V132.424H248.491L246.09 128.887V132.424H245.603V128.063ZM134.389 136.514H135.792V137.051H135.025V141.492H135.792V142.023H134.389V136.514ZM139.221 141.517C138.772 141.517 138.373 141.424 138.024 141.237C137.674 141.05 137.402 140.785 137.206 140.444C137.011 140.099 136.913 139.7 136.913 139.247C136.913 138.793 137.011 138.394 137.206 138.049C137.402 137.704 137.674 137.438 138.024 137.25C138.373 137.063 138.772 136.97 139.221 136.97C139.82 136.97 140.321 137.122 140.725 137.425V138.036C140.363 137.716 139.881 137.556 139.278 137.556C138.941 137.556 138.641 137.625 138.379 137.762C138.121 137.899 137.92 138.097 137.774 138.355C137.629 138.608 137.556 138.906 137.556 139.247C137.556 139.588 137.629 139.887 137.774 140.145C137.924 140.403 138.128 140.6 138.386 140.738C138.648 140.875 138.945 140.943 139.278 140.943C139.585 140.943 139.86 140.904 140.101 140.825C140.346 140.742 140.573 140.611 140.781 140.432V141.05C140.407 141.361 139.887 141.517 139.221 141.517ZM144.103 141.517C143.671 141.517 143.28 141.424 142.931 141.237C142.581 141.045 142.307 140.777 142.107 140.432C141.907 140.087 141.808 139.692 141.808 139.247C141.808 138.802 141.907 138.407 142.107 138.061C142.307 137.716 142.581 137.448 142.931 137.257C143.28 137.065 143.671 136.97 144.103 136.97C144.536 136.97 144.927 137.065 145.276 137.257C145.625 137.448 145.9 137.716 146.1 138.061C146.299 138.407 146.399 138.802 146.399 139.247C146.399 139.692 146.299 140.087 146.1 140.432C145.9 140.777 145.625 141.045 145.276 141.237C144.927 141.424 144.536 141.517 144.103 141.517ZM144.103 140.943C144.411 140.943 144.69 140.875 144.939 140.738C145.193 140.596 145.393 140.399 145.538 140.145C145.684 139.887 145.756 139.588 145.756 139.247C145.756 138.91 145.684 138.615 145.538 138.361C145.397 138.103 145.201 137.905 144.952 137.768C144.702 137.627 144.424 137.556 144.116 137.556C143.804 137.556 143.521 137.625 143.267 137.762C143.018 137.899 142.818 138.097 142.669 138.355C142.523 138.612 142.45 138.91 142.45 139.247C142.45 139.588 142.523 139.887 142.669 140.145C142.814 140.399 143.012 140.596 143.261 140.738C143.515 140.875 143.796 140.943 144.103 140.943ZM149.482 141.517C148.887 141.517 148.438 141.366 148.134 141.062C147.831 140.754 147.679 140.332 147.679 139.796V137.063H148.315V139.821C148.315 140.191 148.419 140.471 148.627 140.663C148.835 140.85 149.12 140.943 149.482 140.943C149.839 140.943 150.122 140.85 150.33 140.663C150.538 140.471 150.642 140.191 150.642 139.821V137.063H151.278V139.796C151.278 140.328 151.127 140.748 150.823 141.056C150.519 141.364 150.072 141.517 149.482 141.517ZM152.684 137.063H154.437C154.902 137.063 155.26 137.176 155.51 137.4C155.759 137.625 155.884 137.953 155.884 138.386C155.884 138.706 155.799 138.978 155.628 139.203C155.458 139.423 155.216 139.573 154.905 139.652L155.865 141.424H155.204L154.274 139.702H153.32V141.424H152.684V137.063ZM154.331 139.166C154.609 139.166 154.83 139.101 154.992 138.972C155.158 138.839 155.241 138.644 155.241 138.386C155.241 138.103 155.16 137.901 154.998 137.781C154.84 137.66 154.618 137.6 154.331 137.6H153.32V139.166H154.331ZM158.404 141.517C158.155 141.517 157.907 141.495 157.662 141.449C157.421 141.407 157.223 141.349 157.069 141.274V140.7C157.469 140.887 157.899 140.981 158.361 140.981C159.01 140.981 159.334 140.763 159.334 140.326C159.334 140.176 159.299 140.056 159.228 139.964C159.157 139.873 159.055 139.794 158.922 139.727C158.789 139.656 158.573 139.561 158.273 139.44C157.862 139.274 157.564 139.091 157.381 138.891C157.198 138.691 157.107 138.44 157.107 138.136C157.107 137.908 157.169 137.706 157.294 137.531C157.419 137.352 157.593 137.215 157.818 137.119C158.043 137.02 158.3 136.97 158.592 136.97C158.829 136.97 159.043 136.988 159.234 137.026C159.425 137.063 159.613 137.124 159.796 137.207V137.756C159.434 137.594 159.068 137.512 158.698 137.512C158.398 137.512 158.169 137.566 158.011 137.675C157.853 137.783 157.774 137.937 157.774 138.136C157.774 138.274 157.808 138.39 157.874 138.486C157.945 138.577 158.047 138.66 158.18 138.735C158.317 138.806 158.519 138.895 158.785 139.003C159.08 139.124 159.313 139.238 159.484 139.346C159.654 139.455 159.783 139.588 159.87 139.746C159.962 139.9 160.008 140.093 160.008 140.326C160.008 140.704 159.873 140.998 159.602 141.205C159.332 141.413 158.933 141.517 158.404 141.517ZM161.315 137.063H164.191V137.6H161.951V138.978H163.623V139.509H161.951V140.894H164.191V141.424H161.315V137.063ZM168.405 137.063H169.01L171.231 140.351V137.063H171.873V141.424H171.262L169.041 138.136V141.424H168.405V137.063ZM174.921 137.063H175.532L177.273 141.424H176.624L176.187 140.338H174.26L173.836 141.424H173.181L174.921 137.063ZM176.013 139.808L175.227 137.768L174.441 139.808H176.013ZM178.425 137.063H179.061L180.615 140.463L182.168 137.063H182.804V141.424H182.187V138.323L180.771 141.424H180.459L179.036 138.323V141.424H178.425V137.063ZM184.239 137.063H187.115V137.6H184.876V138.978H186.547V139.509H184.876V140.894H187.115V141.424H184.239V137.063ZM188.209 141.492H188.97V137.051H188.209V136.514H189.613V142.023H188.209V141.492Z" fill="#964B00"/>
<path d="M80.6188 103.602H83.9524V104.876H82.1301V115.425H83.9524V116.684H80.6188V103.602ZM87.3703 104.905H91.5335C92.6398 104.905 93.4892 105.172 94.0819 105.705C94.6745 106.239 94.9708 107.019 94.9708 108.046C94.9708 108.807 94.7683 109.454 94.3634 109.987C93.9584 110.511 93.3855 110.866 92.6447 111.054L94.9264 115.262H93.3559L91.1483 111.173H88.8815V115.262H87.3703V104.905ZM91.2816 109.898C91.9434 109.898 92.4669 109.745 92.8521 109.439C93.2472 109.123 93.4448 108.659 93.4448 108.046C93.4448 107.375 93.2522 106.896 92.8669 106.609C92.4916 106.323 91.9632 106.18 91.2816 106.18H88.8815V109.898H91.2816ZM101.86 115.484C100.547 115.484 99.5145 115.158 98.7638 114.506C98.023 113.844 97.6526 112.916 97.6526 111.721C97.6526 110.555 97.9835 109.632 98.6453 108.95C99.3169 108.269 100.27 107.928 101.505 107.928C102.325 107.928 103.021 108.086 103.594 108.402C104.167 108.708 104.596 109.138 104.883 109.691C105.179 110.234 105.327 110.856 105.327 111.558V112.299H99.0749C99.1243 112.97 99.4058 113.474 99.9194 113.81C100.443 114.136 101.149 114.299 102.038 114.299C102.492 114.299 102.952 114.259 103.416 114.18C103.88 114.091 104.29 113.978 104.646 113.839V115.039C104.33 115.168 103.91 115.272 103.386 115.351C102.873 115.44 102.364 115.484 101.86 115.484ZM103.92 111.247C103.9 110.575 103.678 110.056 103.253 109.691C102.838 109.316 102.246 109.128 101.475 109.128C100.724 109.128 100.142 109.321 99.7268 109.706C99.312 110.091 99.0947 110.605 99.0749 111.247H103.92ZM112.652 115.484C111.862 115.484 111.161 115.336 110.548 115.039C109.936 114.743 109.457 114.314 109.111 113.75C108.775 113.178 108.607 112.501 108.607 111.721C108.607 110.94 108.775 110.269 109.111 109.706C109.457 109.133 109.936 108.693 110.548 108.387C111.171 108.081 111.882 107.928 112.682 107.928C113.768 107.928 114.638 108.14 115.289 108.565V109.795C114.647 109.35 113.828 109.128 112.83 109.128C112.02 109.128 111.363 109.35 110.859 109.795C110.366 110.229 110.119 110.871 110.119 111.721C110.119 112.57 110.366 113.212 110.859 113.647C111.353 114.081 112 114.299 112.8 114.299C113.798 114.299 114.657 114.062 115.378 113.588V114.802C115.033 115.039 114.638 115.212 114.193 115.321C113.758 115.43 113.245 115.484 112.652 115.484ZM119.821 106.757C119.574 106.757 119.367 106.673 119.199 106.506C119.031 106.338 118.947 106.13 118.947 105.883C118.947 105.636 119.031 105.429 119.199 105.261C119.367 105.093 119.574 105.009 119.821 105.009C120.078 105.009 120.29 105.093 120.458 105.261C120.636 105.429 120.725 105.636 120.725 105.883C120.725 106.13 120.636 106.338 120.458 106.506C120.29 106.673 120.078 106.757 119.821 106.757ZM119.066 108.15H120.592V115.262H119.066V108.15ZM124.592 108.15H126.044V109.202C126.775 108.353 127.763 107.928 129.007 107.928C129.718 107.928 130.355 108.086 130.918 108.402C131.491 108.718 131.936 109.163 132.252 109.735C132.578 110.298 132.741 110.955 132.741 111.706C132.741 112.447 132.578 113.104 132.252 113.676C131.936 114.249 131.496 114.694 130.933 115.01C130.37 115.326 129.728 115.484 129.007 115.484C128.414 115.484 127.861 115.385 127.348 115.188C126.834 114.99 126.414 114.699 126.088 114.314V118.506H124.592V108.15ZM128.666 114.299C129.15 114.299 129.585 114.195 129.97 113.988C130.365 113.77 130.671 113.464 130.889 113.069C131.116 112.674 131.229 112.22 131.229 111.706C131.229 111.192 131.116 110.743 130.889 110.358C130.671 109.963 130.365 109.661 129.97 109.454C129.585 109.237 129.15 109.128 128.666 109.128C128.064 109.128 127.53 109.286 127.066 109.602C126.612 109.918 126.286 110.353 126.088 110.906V112.506C126.256 113.049 126.577 113.484 127.051 113.81C127.525 114.136 128.064 114.299 128.666 114.299ZM137.188 106.757C136.941 106.757 136.733 106.673 136.565 106.506C136.398 106.338 136.314 106.13 136.314 105.883C136.314 105.636 136.398 105.429 136.565 105.261C136.733 105.093 136.941 105.009 137.188 105.009C137.445 105.009 137.657 105.093 137.825 105.261C138.003 105.429 138.092 105.636 138.092 105.883C138.092 106.13 138.003 106.338 137.825 106.506C137.657 106.673 137.445 106.757 137.188 106.757ZM136.432 108.15H137.958V115.262H136.432V108.15ZM145.87 115.484C144.556 115.484 143.524 115.158 142.773 114.506C142.033 113.844 141.662 112.916 141.662 111.721C141.662 110.555 141.993 109.632 142.655 108.95C143.326 108.269 144.28 107.928 145.514 107.928C146.334 107.928 147.03 108.086 147.603 108.402C148.176 108.708 148.606 109.138 148.892 109.691C149.189 110.234 149.337 110.856 149.337 111.558V112.299H143.084C143.134 112.97 143.415 113.474 143.929 113.81C144.452 114.136 145.159 114.299 146.048 114.299C146.502 114.299 146.961 114.259 147.426 114.18C147.89 114.091 148.3 113.978 148.655 113.839V115.039C148.339 115.168 147.919 115.272 147.396 115.351C146.882 115.44 146.374 115.484 145.87 115.484ZM147.929 111.247C147.91 110.575 147.687 110.056 147.263 109.691C146.848 109.316 146.255 109.128 145.485 109.128C144.734 109.128 144.151 109.321 143.736 109.706C143.322 110.091 143.104 110.605 143.084 111.247H147.929ZM152.913 108.15H154.365V109.172C154.701 108.748 155.111 108.437 155.595 108.239C156.089 108.032 156.602 107.928 157.136 107.928C158.084 107.928 158.79 108.18 159.255 108.683C159.719 109.187 159.951 109.864 159.951 110.713V115.262H158.454V110.861C158.454 109.706 157.901 109.128 156.795 109.128C156.321 109.128 155.876 109.242 155.462 109.469C155.057 109.686 154.706 110.022 154.41 110.476V115.262H152.913V108.15ZM166.479 115.484C165.758 115.484 165.2 115.277 164.805 114.862C164.419 114.447 164.227 113.859 164.227 113.099V109.306H163.145V108.15H164.227V106.017H165.738V108.15H167.486V109.306H165.738V112.995C165.738 113.469 165.827 113.805 166.005 114.002C166.192 114.2 166.528 114.299 167.012 114.299C167.299 114.299 167.585 114.234 167.872 114.106V115.291C167.496 115.42 167.032 115.484 166.479 115.484ZM171.526 104.683H173.007L171.837 107.572H170.548L171.526 104.683ZM178.677 115.484C178.183 115.484 177.66 115.42 177.107 115.291C176.554 115.173 176.119 115.01 175.803 114.802V113.528C176.188 113.755 176.633 113.943 177.136 114.091C177.64 114.23 178.129 114.299 178.603 114.299C179.137 114.299 179.527 114.234 179.774 114.106C180.021 113.978 180.144 113.77 180.144 113.484C180.144 113.267 180.085 113.094 179.966 112.965C179.858 112.827 179.665 112.704 179.388 112.595C179.122 112.486 178.717 112.358 178.174 112.21C177.591 112.042 177.127 111.874 176.781 111.706C176.445 111.528 176.188 111.306 176.01 111.039C175.843 110.773 175.759 110.427 175.759 110.002C175.759 109.321 176.025 108.807 176.559 108.461C177.102 108.106 177.828 107.928 178.737 107.928C179.211 107.928 179.675 107.972 180.129 108.061C180.584 108.15 180.949 108.274 181.226 108.432V109.676C180.939 109.508 180.584 109.375 180.159 109.276C179.744 109.177 179.319 109.128 178.885 109.128C178.361 109.128 177.961 109.192 177.685 109.321C177.408 109.449 177.27 109.676 177.27 110.002C177.27 110.21 177.329 110.377 177.448 110.506C177.566 110.634 177.754 110.748 178.011 110.847C178.277 110.935 178.697 111.054 179.27 111.202C180.169 111.449 180.791 111.74 181.137 112.076C181.492 112.412 181.67 112.876 181.67 113.469C181.67 114.081 181.418 114.57 180.915 114.936C180.411 115.301 179.665 115.484 178.677 115.484ZM192.669 104.905H194.106L199.381 112.713V104.905H200.907V115.262H199.455L194.18 107.454V115.262H192.669V104.905ZM207.315 115.484C206.456 115.484 205.765 115.267 205.241 114.832C204.727 114.388 204.471 113.79 204.471 113.039C204.471 112.249 204.718 111.642 205.211 111.217C205.715 110.782 206.426 110.565 207.345 110.565C208.323 110.565 209.152 110.763 209.834 111.158V110.787C209.834 110.224 209.661 109.809 209.315 109.543C208.98 109.266 208.446 109.128 207.715 109.128C207.281 109.128 206.856 109.172 206.441 109.261C206.036 109.34 205.671 109.454 205.345 109.602V108.387C205.641 108.249 206.026 108.14 206.5 108.061C206.975 107.972 207.434 107.928 207.878 107.928C209.054 107.928 209.923 108.19 210.486 108.713C211.059 109.227 211.345 109.943 211.345 110.861V115.262H209.938V114.462C209.631 114.797 209.266 115.054 208.841 115.232C208.426 115.4 207.918 115.484 207.315 115.484ZM207.686 114.343C208.16 114.343 208.589 114.249 208.975 114.062C209.36 113.874 209.646 113.612 209.834 113.276V112.313C209.192 111.899 208.476 111.691 207.686 111.691C207.113 111.691 206.683 111.805 206.397 112.032C206.12 112.249 205.982 112.585 205.982 113.039C205.982 113.909 206.55 114.343 207.686 114.343ZM215.143 108.15H216.565V109.172C216.901 108.758 217.281 108.446 217.706 108.239C218.131 108.032 218.57 107.928 219.025 107.928C219.598 107.928 220.052 108.027 220.388 108.224C220.724 108.412 220.971 108.703 221.129 109.098C221.445 108.713 221.83 108.422 222.284 108.224C222.749 108.027 223.213 107.928 223.677 107.928C224.546 107.928 225.173 108.15 225.559 108.595C225.944 109.029 226.136 109.676 226.136 110.535V115.262H224.684V110.728C224.684 110.145 224.576 109.735 224.359 109.498C224.141 109.251 223.771 109.128 223.247 109.128C222.497 109.128 221.884 109.454 221.41 110.106C221.43 110.254 221.44 110.496 221.44 110.832V115.262H219.988V110.728C219.988 110.145 219.889 109.735 219.692 109.498C219.494 109.251 219.138 109.128 218.625 109.128C217.874 109.128 217.202 109.553 216.61 110.402V115.262H215.143V108.15ZM233.843 115.484C232.53 115.484 231.498 115.158 230.747 114.506C230.006 113.844 229.636 112.916 229.636 111.721C229.636 110.555 229.967 109.632 230.628 108.95C231.3 108.269 232.253 107.928 233.488 107.928C234.308 107.928 235.004 108.086 235.577 108.402C236.15 108.708 236.579 109.138 236.866 109.691C237.162 110.234 237.31 110.856 237.31 111.558V112.299H231.058C231.107 112.97 231.389 113.474 231.903 113.81C232.426 114.136 233.132 114.299 234.021 114.299C234.476 114.299 234.935 114.259 235.399 114.18C235.863 114.091 236.273 113.978 236.629 113.839V115.039C236.313 115.168 235.893 115.272 235.369 115.351C234.856 115.44 234.347 115.484 233.843 115.484ZM235.903 111.247C235.883 110.575 235.661 110.056 235.236 109.691C234.821 109.316 234.229 109.128 233.458 109.128C232.708 109.128 232.125 109.321 231.71 109.706C231.295 110.091 231.078 110.605 231.058 111.247H235.903ZM240.442 115.425H242.25V104.876H240.442V103.602H243.776V116.684H240.442V115.425Z" fill="#964B00"/>
<line x1="62.3828" y1="77.0043" x2="262.007" y2="77.0043" stroke="#964B00" stroke-width="0.389892"/>
<line x1="62.3828" y1="175.647" x2="106.83" y2="175.647" stroke="#964B00" stroke-width="0.389892"/>
<path d="M71.8356 177.429H72.2006V180.699H71.8356V177.429ZM74.1971 180.769C74.0162 180.769 73.8384 180.754 73.6637 180.723C73.489 180.691 73.3456 180.649 73.2333 180.596V180.25C73.5265 180.378 73.8415 180.442 74.1784 180.442C74.4591 180.442 74.665 180.397 74.796 180.306C74.9301 180.216 74.9971 180.08 74.9971 179.899C74.9971 179.771 74.9691 179.67 74.9129 179.595C74.8599 179.52 74.7819 179.458 74.679 179.408C74.5761 179.355 74.3983 179.277 74.1456 179.174C73.8368 179.049 73.6122 178.914 73.4719 178.767C73.3346 178.617 73.266 178.428 73.266 178.201C73.266 178.035 73.3097 177.889 73.397 177.761C73.4875 177.633 73.6138 177.535 73.776 177.466C73.9382 177.394 74.1253 177.359 74.3374 177.359C74.509 177.359 74.6634 177.373 74.8006 177.401C74.941 177.426 75.0782 177.468 75.2124 177.527V177.859C74.9504 177.744 74.6759 177.686 74.3889 177.686C74.1394 177.686 73.9507 177.731 73.8228 177.822C73.6949 177.912 73.631 178.039 73.631 178.201C73.631 178.31 73.6575 178.404 73.7105 178.482C73.7635 178.559 73.8462 178.631 73.9585 178.697C74.0739 178.762 74.2314 178.834 74.431 178.912C74.6556 178.999 74.8318 179.082 74.9597 179.16C75.0876 179.235 75.1858 179.331 75.2545 179.45C75.3262 179.565 75.3621 179.715 75.3621 179.899C75.3621 180.177 75.2638 180.392 75.0673 180.545C74.8708 180.695 74.5807 180.769 74.1971 180.769ZM77.0957 180.769C76.9148 180.769 76.737 180.754 76.5623 180.723C76.3876 180.691 76.2442 180.649 76.1319 180.596V180.25C76.4251 180.378 76.7401 180.442 77.077 180.442C77.3577 180.442 77.5636 180.397 77.6946 180.306C77.8287 180.216 77.8957 180.08 77.8957 179.899C77.8957 179.771 77.8677 179.67 77.8115 179.595C77.7585 179.52 77.6805 179.458 77.5776 179.408C77.4747 179.355 77.2969 179.277 77.0442 179.174C76.7354 179.049 76.5108 178.914 76.3705 178.767C76.2332 178.617 76.1646 178.428 76.1646 178.201C76.1646 178.035 76.2083 177.889 76.2956 177.761C76.3861 177.633 76.5124 177.535 76.6746 177.466C76.8368 177.394 77.0239 177.359 77.236 177.359C77.4076 177.359 77.562 177.373 77.6992 177.401C77.8396 177.426 77.9768 177.468 78.111 177.527V177.859C77.849 177.744 77.5745 177.686 77.2875 177.686C77.038 177.686 76.8493 177.731 76.7214 177.822C76.5935 177.912 76.5296 178.039 76.5296 178.201C76.5296 178.31 76.5561 178.404 76.6091 178.482C76.6621 178.559 76.7448 178.631 76.8571 178.697C76.9725 178.762 77.13 178.834 77.3296 178.912C77.5542 178.999 77.7304 179.082 77.8583 179.16C77.9862 179.235 78.0845 179.331 78.1531 179.45C78.2248 179.565 78.2607 179.715 78.2607 179.899C78.2607 180.177 78.1624 180.392 77.9659 180.545C77.7694 180.695 77.4793 180.769 77.0957 180.769ZM80.5705 180.769C80.1401 180.769 79.8141 180.66 79.5926 180.442C79.3743 180.224 79.2651 179.919 79.2651 179.53V177.429H79.6301V179.558C79.6301 179.854 79.7127 180.075 79.8781 180.222C80.0434 180.369 80.2742 180.442 80.5705 180.442C80.8668 180.442 81.0976 180.369 81.2629 180.222C81.4283 180.075 81.5109 179.854 81.5109 179.558V177.429H81.8759V179.53C81.8759 179.919 81.7651 180.224 81.5437 180.442C81.3253 180.66 81.0009 180.769 80.5705 180.769ZM82.9776 177.429H85.083V177.738H83.3425V178.907H84.6479V179.216H83.3425V180.39H85.083V180.699H82.9776V177.429ZM86.1138 177.429H87.1244C87.4737 177.429 87.7763 177.494 88.032 177.625C88.2909 177.756 88.489 177.943 88.6262 178.187C88.7635 178.43 88.8321 178.717 88.8321 179.048C88.8321 179.593 88.6761 180.005 88.3642 180.283C88.0523 180.56 87.6141 180.699 87.0495 180.699H86.1138V177.429ZM87.0261 180.39C87.5189 180.39 87.8823 180.278 88.1163 180.054C88.3502 179.826 88.4672 179.491 88.4672 179.048C88.4672 178.636 88.3533 178.315 88.1256 178.084C87.8979 177.853 87.5626 177.738 87.1197 177.738H86.4787V180.39H87.0261ZM92.1074 177.429H93.5578C93.8417 177.429 94.0585 177.504 94.2082 177.653C94.3579 177.8 94.4328 178.017 94.4328 178.304C94.4328 178.472 94.3938 178.619 94.3158 178.744C94.2378 178.865 94.1349 178.956 94.007 179.015C94.3657 179.108 94.545 179.366 94.545 179.787C94.545 179.971 94.5045 180.133 94.4234 180.273C94.3454 180.411 94.2363 180.517 94.0959 180.592C93.9586 180.663 93.8058 180.699 93.6374 180.699H92.1074V177.429ZM93.5298 178.87C93.7044 178.87 93.837 178.823 93.9275 178.729C94.021 178.633 94.0678 178.494 94.0678 178.313C94.0678 178.107 94.0226 177.961 93.9321 177.873C93.8417 177.783 93.6951 177.738 93.4923 177.738H92.4724V178.87H93.5298ZM93.5578 180.39C93.7637 180.39 93.9181 180.344 94.021 180.25C94.1271 180.156 94.1801 179.999 94.1801 179.778C94.1801 179.562 94.1255 179.409 94.0164 179.319C93.9072 179.225 93.7372 179.179 93.5064 179.179H92.4724V180.39H93.5578ZM96.3156 179.459L95.1272 177.429H95.5155L96.4981 179.127L97.4853 177.429H97.8689L96.6805 179.459V180.699H96.3156V179.459Z" fill="#964B00"/>
<path d="M69.6136 168.439H70.5541V168.748H69.9786V172.266H70.5541V172.57H69.6136V168.439ZM71.5367 168.851H73.6421V169.159H71.9016V170.329H73.207V170.638H71.9016V172.121H71.5367V168.851ZM75.8589 172.191C75.4284 172.191 75.1025 172.082 74.881 171.864C74.6627 171.645 74.5535 171.341 74.5535 170.951V168.851H74.9184V170.979C74.9184 171.276 75.0011 171.497 75.1664 171.644C75.3317 171.79 75.5625 171.864 75.8589 171.864C76.1552 171.864 76.386 171.79 76.5513 171.644C76.7166 171.497 76.7993 171.276 76.7993 170.979V168.851H77.1642V170.951C77.1642 171.341 77.0535 171.645 76.832 171.864C76.6137 172.082 76.2893 172.191 75.8589 172.191ZM78.2659 168.851H78.6309V171.812H80.3714V172.121H78.2659V168.851ZM81.2833 168.851H81.6483V171.812H83.3888V172.121H81.2833V168.851ZM84.3007 168.851H84.6516L86.4529 171.499V168.851H86.8179V172.121H86.467L84.6657 169.468V172.121H84.3007V168.851ZM89.1513 168.851H89.4929L90.7982 172.121H90.4239L90.073 171.246H88.5665L88.2202 172.121H87.846L89.1513 168.851ZM89.9701 170.937L89.3197 169.272L88.6741 170.937H89.9701ZM91.7108 168.851H92.0851L93.3203 171.55L94.5555 168.851H94.9298V172.121H94.5695V169.595L93.4139 172.121H93.2267L92.0711 169.595V172.121H91.7108V168.851ZM96.0532 168.851H98.1586V169.159H96.4182V170.329H97.7235V170.638H96.4182V171.812H98.1586V172.121H96.0532V168.851ZM99.0491 172.266H99.6199V168.748H99.0491V168.439H99.9895V172.57H99.0491V172.266Z" fill="#964B00"/>
<line x1="217.559" y1="175.647" x2="262.007" y2="175.647" stroke="#964B00" stroke-width="0.389892"/>
<path d="M225.734 177.429H226.099V180.699H225.734V177.429ZM228.095 180.769C227.914 180.769 227.737 180.754 227.562 180.723C227.387 180.691 227.244 180.649 227.132 180.596V180.25C227.425 180.378 227.74 180.442 228.077 180.442C228.357 180.442 228.563 180.397 228.694 180.306C228.828 180.216 228.895 180.08 228.895 179.899C228.895 179.771 228.867 179.67 228.811 179.595C228.758 179.52 228.68 179.458 228.577 179.408C228.474 179.355 228.297 179.277 228.044 179.174C227.735 179.049 227.511 178.914 227.37 178.767C227.233 178.617 227.164 178.428 227.164 178.201C227.164 178.035 227.208 177.889 227.295 177.761C227.386 177.633 227.512 177.535 227.674 177.466C227.837 177.394 228.024 177.359 228.236 177.359C228.407 177.359 228.562 177.373 228.699 177.401C228.839 177.426 228.977 177.468 229.111 177.527V177.859C228.849 177.744 228.574 177.686 228.287 177.686C228.038 177.686 227.849 177.731 227.721 177.822C227.593 177.912 227.529 178.039 227.529 178.201C227.529 178.31 227.556 178.404 227.609 178.482C227.662 178.559 227.744 178.631 227.857 178.697C227.972 178.762 228.13 178.834 228.329 178.912C228.554 178.999 228.73 179.082 228.858 179.16C228.986 179.235 229.084 179.331 229.153 179.45C229.225 179.565 229.26 179.715 229.26 179.899C229.26 180.177 229.162 180.392 228.966 180.545C228.769 180.695 228.479 180.769 228.095 180.769ZM230.994 180.769C230.813 180.769 230.635 180.754 230.461 180.723C230.286 180.691 230.142 180.649 230.03 180.596V180.25C230.323 180.378 230.638 180.442 230.975 180.442C231.256 180.442 231.462 180.397 231.593 180.306C231.727 180.216 231.794 180.08 231.794 179.899C231.794 179.771 231.766 179.67 231.71 179.595C231.657 179.52 231.579 179.458 231.476 179.408C231.373 179.355 231.195 179.277 230.943 179.174C230.634 179.049 230.409 178.914 230.269 178.767C230.132 178.617 230.063 178.428 230.063 178.201C230.063 178.035 230.107 177.889 230.194 177.761C230.284 177.633 230.411 177.535 230.573 177.466C230.735 177.394 230.922 177.359 231.134 177.359C231.306 177.359 231.46 177.373 231.598 177.401C231.738 177.426 231.875 177.468 232.009 177.527V177.859C231.747 177.744 231.473 177.686 231.186 177.686C230.936 177.686 230.748 177.731 230.62 177.822C230.492 177.912 230.428 178.039 230.428 178.201C230.428 178.31 230.454 178.404 230.507 178.482C230.56 178.559 230.643 178.631 230.755 178.697C230.871 178.762 231.028 178.834 231.228 178.912C231.453 178.999 231.629 179.082 231.757 179.16C231.885 179.235 231.983 179.331 232.051 179.45C232.123 179.565 232.159 179.715 232.159 179.899C232.159 180.177 232.061 180.392 231.864 180.545C231.668 180.695 231.378 180.769 230.994 180.769ZM234.469 180.769C234.038 180.769 233.712 180.66 233.491 180.442C233.273 180.224 233.163 179.919 233.163 179.53V177.429H233.528V179.558C233.528 179.854 233.611 180.075 233.776 180.222C233.942 180.369 234.172 180.442 234.469 180.442C234.765 180.442 234.996 180.369 235.161 180.222C235.327 180.075 235.409 179.854 235.409 179.558V177.429H235.774V179.53C235.774 179.919 235.663 180.224 235.442 180.442C235.224 180.66 234.899 180.769 234.469 180.769ZM236.876 177.429H238.981V177.738H237.241V178.907H238.546V179.216H237.241V180.39H238.981V180.699H236.876V177.429ZM242.257 177.429H243.268C243.617 177.429 243.92 177.494 244.176 177.625C244.434 177.756 244.633 177.943 244.77 178.187C244.907 178.43 244.976 178.717 244.976 179.048C244.976 179.593 244.82 180.005 244.508 180.283C244.196 180.56 243.758 180.699 243.193 180.699H242.257V177.429ZM243.17 180.39C243.662 180.39 244.026 180.278 244.26 180.054C244.494 179.826 244.611 179.491 244.611 179.048C244.611 178.636 244.497 178.315 244.269 178.084C244.041 177.853 243.706 177.738 243.263 177.738H242.622V180.39H243.17ZM246.911 177.429H247.253L248.558 180.699H248.184L247.833 179.824H246.327L245.98 180.699H245.606L246.911 177.429ZM247.73 179.516L247.08 177.85L246.434 179.516H247.73ZM249.866 177.738H248.818V177.429H251.279V177.738H250.231V180.699H249.866V177.738ZM252.214 177.429H254.32V177.738H252.579V178.907H253.884V179.216H252.579V180.39H254.32V180.699H252.214V177.429Z" fill="#964B00"/>
<path d="M224.319 168.439H225.26V168.748H224.684V172.266H225.26V172.57H224.319V168.439ZM226.242 168.851H227.253C227.602 168.851 227.905 168.916 228.161 169.047C228.419 169.178 228.618 169.365 228.755 169.609C228.892 169.852 228.961 170.139 228.961 170.47C228.961 171.015 228.805 171.427 228.493 171.705C228.181 171.982 227.743 172.121 227.178 172.121H226.242V168.851ZM227.155 171.812C227.647 171.812 228.011 171.7 228.245 171.475C228.479 171.248 228.596 170.912 228.596 170.47C228.596 170.058 228.482 169.737 228.254 169.506C228.026 169.275 227.691 169.159 227.248 169.159H226.607V171.812H227.155ZM229.922 168.851H230.933C231.282 168.851 231.585 168.916 231.84 169.047C232.099 169.178 232.297 169.365 232.435 169.609C232.572 169.852 232.641 170.139 232.641 170.47C232.641 171.015 232.485 171.427 232.173 171.705C231.861 171.982 231.423 172.121 230.858 172.121H229.922V168.851ZM230.835 171.812C231.327 171.812 231.691 171.7 231.925 171.475C232.159 171.248 232.276 170.912 232.276 170.47C232.276 170.058 232.162 169.737 231.934 169.506C231.706 169.275 231.371 169.159 230.928 169.159H230.287V171.812H230.835ZM234.911 168.781H235.289L233.956 172.121H233.577L234.911 168.781ZM236.318 168.851H236.692L237.927 171.55L239.163 168.851H239.537V172.121H239.177V169.595L238.021 172.121H237.834L236.678 169.595V172.121H236.318V168.851ZM240.66 168.851H241.035L242.27 171.55L243.505 168.851H243.879V172.121H243.519V169.595L242.363 172.121H242.176L241.021 169.595V172.121H240.66V168.851ZM246.243 168.781H246.622L245.288 172.121H244.909L246.243 168.781ZM248.745 170.881L247.557 168.851H247.945L248.927 170.549L249.915 168.851H250.298L249.11 170.881V172.121H248.745V170.881ZM252.256 170.881L251.067 168.851H251.456L252.438 170.549L253.425 168.851H253.809L252.621 170.881V172.121H252.256V170.881ZM254.696 172.266H255.267V168.748H254.696V168.439H255.636V172.57H254.696V172.266Z" fill="#964B00"/>
<g opacity="0.9">
<path d="M222 11C222 5.47715 226.477 1 232 1H322.839V32H232C226.477 32 222 27.5228 222 22V11Z" fill="#606060"/>
<path d="M236.576 12.42C237.191 12.42 237.72 12.5283 238.162 12.745C238.613 12.9617 238.964 13.2693 239.215 13.668C239.466 14.0667 239.592 14.5477 239.592 15.111C239.592 15.6657 239.466 16.1467 239.215 16.554C238.964 16.9527 238.613 17.2603 238.162 17.477C237.72 17.6937 237.191 17.802 236.576 17.802H234.665V21H233.274V12.42H236.576ZM236.355 16.606C236.97 16.606 237.421 16.4803 237.707 16.229C238.002 15.969 238.149 15.5963 238.149 15.111C238.149 14.617 238.002 14.2443 237.707 13.993C237.421 13.733 236.97 13.603 236.355 13.603H234.665V16.606H236.355ZM241.177 21V14.5H242.36L242.49 15.67C242.664 15.2453 242.919 14.9247 243.257 14.708C243.604 14.4827 244.029 14.37 244.531 14.37C244.661 14.37 244.791 14.383 244.921 14.409C245.051 14.4263 245.16 14.4567 245.246 14.5L245.051 15.722C244.956 15.6873 244.848 15.6613 244.726 15.644C244.614 15.618 244.458 15.605 244.258 15.605C243.99 15.605 243.725 15.6787 243.465 15.826C243.205 15.9647 242.989 16.177 242.815 16.463C242.651 16.749 242.568 17.113 242.568 17.555V21H241.177ZM249.203 21.13C248.553 21.13 247.981 20.9957 247.487 20.727C246.993 20.4583 246.607 20.0727 246.33 19.57C246.061 19.0587 245.927 18.452 245.927 17.75C245.927 17.048 246.061 16.4457 246.33 15.943C246.607 15.4317 246.989 15.0417 247.474 14.773C247.959 14.5043 248.51 14.37 249.125 14.37C249.758 14.37 250.295 14.5 250.737 14.76C251.179 15.02 251.517 15.3753 251.751 15.826C251.985 16.2767 252.102 16.788 252.102 17.36C252.102 17.516 252.098 17.6633 252.089 17.802C252.08 17.9407 252.067 18.062 252.05 18.166H246.824V17.1H251.439L250.75 17.308C250.75 16.7187 250.603 16.268 250.308 15.956C250.013 15.6353 249.61 15.475 249.099 15.475C248.726 15.475 248.401 15.5617 248.124 15.735C247.847 15.9083 247.634 16.1683 247.487 16.515C247.34 16.853 247.266 17.269 247.266 17.763C247.266 18.2483 247.344 18.66 247.5 18.998C247.656 19.336 247.877 19.5917 248.163 19.765C248.449 19.9383 248.787 20.025 249.177 20.025C249.61 20.025 249.961 19.9427 250.23 19.778C250.499 19.6133 250.711 19.3837 250.867 19.089L251.972 19.609C251.816 19.921 251.604 20.194 251.335 20.428C251.075 20.6533 250.763 20.8267 250.399 20.948C250.035 21.0693 249.636 21.13 249.203 21.13ZM253.807 21V14.5H255.042L255.107 15.592C255.332 15.176 255.631 14.8683 256.004 14.669C256.385 14.4697 256.788 14.37 257.213 14.37C257.681 14.37 258.11 14.4783 258.5 14.695C258.898 14.903 259.197 15.2193 259.397 15.644C259.535 15.358 259.726 15.1197 259.969 14.929C260.211 14.7383 260.48 14.5997 260.775 14.513C261.069 14.4177 261.36 14.37 261.646 14.37C262.062 14.37 262.452 14.4567 262.816 14.63C263.18 14.8033 263.474 15.0677 263.7 15.423C263.925 15.7783 264.038 16.2333 264.038 16.788V21H262.647V17.009C262.647 16.4803 262.521 16.099 262.27 15.865C262.018 15.631 261.698 15.514 261.308 15.514C261.004 15.514 260.723 15.5877 260.463 15.735C260.211 15.8823 260.008 16.1033 259.852 16.398C259.696 16.684 259.618 17.0393 259.618 17.464V21H258.227V17.009C258.227 16.4803 258.101 16.099 257.85 15.865C257.598 15.631 257.278 15.514 256.888 15.514C256.628 15.514 256.368 15.5833 256.108 15.722C255.848 15.8607 255.631 16.0773 255.458 16.372C255.284 16.6667 255.198 17.0567 255.198 17.542V21H253.807ZM266.797 13.408C266.493 13.408 266.259 13.3343 266.095 13.187C265.939 13.031 265.861 12.8143 265.861 12.537C265.861 12.2597 265.939 12.0473 266.095 11.9C266.259 11.7527 266.493 11.679 266.797 11.679C267.091 11.679 267.317 11.7527 267.473 11.9C267.637 12.0473 267.72 12.2597 267.72 12.537C267.72 12.8143 267.637 13.031 267.473 13.187C267.317 13.3343 267.091 13.408 266.797 13.408ZM267.486 14.5V21H266.095V14.5H267.486ZM271.924 21.13C271.499 21.13 271.105 21.052 270.741 20.896C270.386 20.74 270.1 20.4887 269.883 20.142C269.666 19.7953 269.558 19.3447 269.558 18.79V14.5H270.949V18.439C270.949 19.0283 271.075 19.4357 271.326 19.661C271.577 19.8777 271.928 19.986 272.379 19.986C272.596 19.986 272.804 19.9513 273.003 19.882C273.211 19.804 273.397 19.687 273.562 19.531C273.727 19.3663 273.852 19.1583 273.939 18.907C274.034 18.6557 274.082 18.361 274.082 18.023V14.5H275.473V21H274.251L274.186 19.947C273.961 20.3543 273.657 20.6533 273.276 20.844C272.895 21.0347 272.444 21.13 271.924 21.13ZM277.594 21V14.5H278.829L278.894 15.592C279.119 15.176 279.418 14.8683 279.791 14.669C280.172 14.4697 280.575 14.37 281 14.37C281.468 14.37 281.897 14.4783 282.287 14.695C282.686 14.903 282.985 15.2193 283.184 15.644C283.323 15.358 283.513 15.1197 283.756 14.929C283.999 14.7383 284.267 14.5997 284.562 14.513C284.857 14.4177 285.147 14.37 285.433 14.37C285.849 14.37 286.239 14.4567 286.603 14.63C286.967 14.8033 287.262 15.0677 287.487 15.423C287.712 15.7783 287.825 16.2333 287.825 16.788V21H286.434V17.009C286.434 16.4803 286.308 16.099 286.057 15.865C285.806 15.631 285.485 15.514 285.095 15.514C284.792 15.514 284.51 15.5877 284.25 15.735C283.999 15.8823 283.795 16.1033 283.639 16.398C283.483 16.684 283.405 17.0393 283.405 17.464V21H282.014V17.009C282.014 16.4803 281.888 16.099 281.637 15.865C281.386 15.631 281.065 15.514 280.675 15.514C280.415 15.514 280.155 15.5833 279.895 15.722C279.635 15.8607 279.418 16.0773 279.245 16.372C279.072 16.6667 278.985 17.0567 278.985 17.542V21H277.594Z" fill="white"/>
<path d="M310.557 20.404V20.5432C310.557 20.7955 310.353 21.0003 310.1 21.0003H301.74C301.487 21.0003 301.283 20.7955 301.283 20.5432V20.404C301.283 20.1517 301.487 19.9473 301.74 19.9473H310.1C310.353 19.9473 310.557 20.1517 310.557 20.404Z" fill="#FFC035"/>
<path opacity="0.2" d="M310.557 20.404V20.5432C310.557 20.5956 310.549 20.6462 310.532 20.6931C310.47 20.5147 310.3 20.3866 310.1 20.3866H301.74C301.54 20.3866 301.37 20.5147 301.308 20.6931C301.292 20.6462 301.283 20.5956 301.283 20.5432V20.404C301.283 20.1517 301.487 19.9473 301.74 19.9473H310.1C310.353 19.9473 310.557 20.1517 310.557 20.404Z" fill="black"/>
<path d="M311.605 14.2775V14.2778L310.157 19.9473H301.683L300.234 14.2778V14.2775C300.5 14.21 300.722 14.035 300.853 13.8017C301.274 13.9682 301.732 14.0589 302.212 14.0589C303.792 14.0589 305.14 13.0712 305.674 11.6803V11.6797C305.754 11.6944 305.836 11.7021 305.92 11.7021C306.004 11.7021 306.086 11.6944 306.165 11.6797V11.6803C306.699 13.0715 308.048 14.0589 309.628 14.0589C310.107 14.0589 310.566 13.9682 310.987 13.8017C311.117 14.035 311.34 14.21 311.605 14.2775Z" fill="#FFC035"/>
<path d="M301.249 14.1981C301.118 14.4313 300.896 14.6064 300.63 14.6738C300.552 14.6938 300.47 14.7045 300.385 14.7045C299.839 14.7045 299.396 14.2618 299.396 13.7155C299.396 13.1692 299.839 12.7266 300.385 12.7266C300.932 12.7266 301.374 13.1692 301.374 13.7155C301.374 13.8909 301.329 14.0555 301.249 14.1981Z" fill="#FFC035"/>
<path d="M305.92 9.79297C306.666 9.79297 307.271 10.3978 307.271 11.144C307.271 11.8058 306.794 12.357 306.165 12.4723C306.086 12.487 306.004 12.4947 305.92 12.4947C305.836 12.4947 305.754 12.487 305.674 12.4723C305.045 12.357 304.569 11.8058 304.569 11.144C304.569 10.3978 305.174 9.79297 305.92 9.79297Z" fill="#F7BB38"/>
<path d="M310.59 14.1981C310.508 14.0506 310.465 13.8845 310.465 13.7155C310.465 13.1692 310.908 12.7266 311.454 12.7266C312 12.7266 312.443 13.1692 312.443 13.7155C312.443 14.2618 312 14.7045 311.454 14.7045C311.369 14.7045 311.287 14.6938 311.209 14.6738C310.943 14.6064 310.721 14.4313 310.59 14.1981Z" fill="#FFC035"/>
</g>
</g>
<rect x="0.779783" y="-0.779783" width="322.83" height="214.44" transform="matrix(1 0 0 -1 0 214.44)" stroke="#964B00" stroke-width="1.55957"/>
<defs>
<clipPath id="clip0_1735_10744">
<rect width="324.39" height="216" transform="matrix(1 0 0 -1 0 216)" fill="white"/>
</clipPath>
</defs>
</svg>
