<svg width="324" height="216" viewBox="0 0 324 216" fill="none" xmlns="http://www.w3.org/2000/svg">
<g clip-path="url(#clip0_1735_10692)">
<rect width="324" height="215.74" rx="4" transform="matrix(1 0 0 -1 0 215.74)" fill="white"/>
<rect width="162" height="107.87" fill="#1C7349" fill-opacity="0.03"/>
<rect x="161.61" y="107.869" width="162" height="107.87" fill="#1C7349" fill-opacity="0.03"/>
<rect width="58.4135" height="19.4712" fill="#1C7349"/>
<rect y="19.4707" width="29.2067" height="19.4712" fill="#1C7349"/>
<rect x="324" y="215.793" width="58.4135" height="19.4712" transform="rotate(-179.893 324 215.793)" fill="#1C7349"/>
<rect x="324.037" y="196.322" width="29.2067" height="19.4712" transform="rotate(-179.893 324.037 196.322)" fill="#1C7349"/>
<path d="M81.4271 57.8936C79.9992 57.8936 78.7336 57.6081 77.6302 57.0369C76.5269 56.4528 75.6701 55.6285 75.06 54.5641C74.4499 53.4867 74.1449 52.234 74.1449 50.8061C74.1449 49.3782 74.4499 48.1321 75.06 47.0677C75.6701 45.9903 76.5269 45.1595 77.6302 44.5754C78.7336 43.9912 79.9992 43.6992 81.4271 43.6992C83.3093 43.6992 84.88 44.147 86.1391 45.0427V47.3987C85.0098 46.4381 83.5105 45.9578 81.6413 45.9578C80.6418 45.9578 79.7656 46.159 79.0127 46.5614C78.2598 46.9508 77.6757 47.509 77.2603 48.2359C76.8449 48.9629 76.6372 49.8196 76.6372 50.8061C76.6372 51.7927 76.8449 52.6494 77.2603 53.3763C77.6886 54.1032 78.2793 54.6679 79.0321 55.0703C79.785 55.4597 80.6547 55.6544 81.6413 55.6544C82.6019 55.6544 83.4586 55.5376 84.2115 55.304C84.9644 55.0573 85.6588 54.6679 86.2949 54.1357V56.4917C85.1007 57.4263 83.4781 57.8936 81.4271 57.8936ZM90.1911 43.9912H99.401V46.0357H92.6639V49.7742H97.668V51.8186H92.6639V55.5571H99.401V57.6016H90.1911V43.9912ZM103.11 43.9912H108.795C110.301 43.9912 111.463 44.3612 112.281 45.1011C113.098 45.841 113.507 46.9119 113.507 48.3138C113.507 49.3133 113.261 50.1636 112.767 50.8645C112.274 51.5655 111.573 52.0653 110.665 52.3638L113.429 57.6016H110.898L108.27 52.6169H105.583V57.6016H103.11V43.9912ZM108.347 50.5725C109.152 50.5725 109.801 50.3843 110.295 50.0078C110.788 49.6314 111.035 49.0667 111.035 48.3138C111.035 46.7951 110.139 46.0357 108.347 46.0357H105.583V50.5725H108.347ZM120.043 46.0357H115.934V43.9912H126.624V46.0357H122.515V57.6016H120.043V46.0357ZM130.126 43.9912H132.599V57.6016H130.126V43.9912ZM136.884 43.9912H146.094V46.0552H139.357V49.8715H144.361V51.7213H139.357V57.6016H136.884V43.9912ZM149.593 43.9912H152.066V57.6016H149.593V43.9912ZM163.244 57.8936C161.816 57.8936 160.55 57.6081 159.447 57.0369C158.344 56.4528 157.487 55.6285 156.877 54.5641C156.267 53.4867 155.962 52.234 155.962 50.8061C155.962 49.3782 156.267 48.1321 156.877 47.0677C157.487 45.9903 158.344 45.1595 159.447 44.5754C160.55 43.9912 161.816 43.6992 163.244 43.6992C165.126 43.6992 166.697 44.147 167.956 45.0427V47.3987C166.827 46.4381 165.327 45.9578 163.458 45.9578C162.459 45.9578 161.582 46.159 160.83 46.5614C160.077 46.9508 159.493 47.509 159.077 48.2359C158.662 48.9629 158.454 49.8196 158.454 50.8061C158.454 51.7927 158.662 52.6494 159.077 53.3763C159.506 54.1032 160.096 54.6679 160.849 55.0703C161.602 55.4597 162.472 55.6544 163.458 55.6544C164.419 55.6544 165.275 55.5376 166.028 55.304C166.781 55.0573 167.476 54.6679 168.112 54.1357V56.4917C166.918 57.4263 165.295 57.8936 163.244 57.8936ZM176.576 43.9912H178.971L184.404 57.6016H181.892L180.646 54.4667H174.882L173.655 57.6016H171.124L176.576 43.9912ZM179.964 52.4222L177.764 46.6393L175.564 52.4222H179.964ZM189.188 46.0357H185.08V43.9912H195.769V46.0357H191.661V57.6016H189.188V46.0357ZM199.271 43.9912H208.481V46.0357H201.744V49.7742H206.748V51.8186H201.744V55.5571H208.481V57.6016H199.271V43.9912ZM227.988 57.8936C226.625 57.8936 225.392 57.6016 224.288 57.0174C223.198 56.4203 222.335 55.5831 221.699 54.5056C221.076 53.4282 220.764 52.1951 220.764 50.8061C220.764 49.4172 221.076 48.184 221.699 47.1066C222.335 46.0292 223.198 45.1919 224.288 44.5948C225.392 43.9977 226.625 43.6992 227.988 43.6992C229.338 43.6992 230.558 43.9977 231.649 44.5948C232.752 45.1919 233.615 46.0292 234.238 47.1066C234.874 48.184 235.192 49.4172 235.192 50.8061C235.192 52.1951 234.874 53.4282 234.238 54.5056C233.615 55.5701 232.752 56.4008 231.649 56.998C230.558 57.5951 229.338 57.8936 227.988 57.8936ZM227.988 55.6544C228.858 55.6544 229.65 55.4597 230.363 55.0703C231.077 54.6679 231.642 54.1032 232.057 53.3763C232.486 52.6364 232.7 51.7797 232.7 50.8061C232.7 49.8456 232.492 49.0018 232.077 48.2749C231.662 47.535 231.097 46.9638 230.383 46.5614C229.669 46.159 228.871 45.9578 227.988 45.9578C227.105 45.9578 226.301 46.159 225.574 46.5614C224.86 46.9638 224.295 47.535 223.88 48.2749C223.464 49.0018 223.257 49.8456 223.257 50.8061C223.257 51.7797 223.464 52.6364 223.88 53.3763C224.308 54.1032 224.879 54.6679 225.593 55.0703C226.32 55.4597 227.118 55.6544 227.988 55.6544ZM239.092 43.9912H248.302V46.0552H241.565V49.8715H246.569V51.7213H241.565V57.6016H239.092V43.9912ZM99.0538 86.8936C97.6259 86.8936 96.3603 86.6081 95.257 86.0369C94.1536 85.4528 93.2969 84.6285 92.6868 83.5641C92.0767 82.4867 91.7716 81.234 91.7716 79.8061C91.7716 78.3782 92.0767 77.1321 92.6868 76.0677C93.2969 74.9903 94.1536 74.1595 95.257 73.5754C96.3603 72.9912 97.6259 72.6992 99.0538 72.6992C100.936 72.6992 102.507 73.147 103.766 74.0427V76.3987C102.637 75.4381 101.137 74.9578 99.268 74.9578C98.2685 74.9578 97.3923 75.159 96.6394 75.5614C95.8865 75.9508 95.3024 76.509 94.887 77.2359C94.4716 77.9629 94.2639 78.8196 94.2639 79.8061C94.2639 80.7927 94.4716 81.6494 94.887 82.3763C95.3154 83.1032 95.906 83.6679 96.6589 84.0703C97.4118 84.4597 98.2815 84.6544 99.268 84.6544C100.229 84.6544 101.085 84.5376 101.838 84.304C102.591 84.0573 103.286 83.6679 103.922 83.1357V85.4917C102.727 86.4263 101.105 86.8936 99.0538 86.8936ZM114.158 86.8936C112.795 86.8936 111.562 86.6016 110.458 86.0174C109.368 85.4203 108.505 84.5831 107.869 83.5056C107.246 82.4282 106.934 81.1951 106.934 79.8061C106.934 78.4172 107.246 77.184 107.869 76.1066C108.505 75.0292 109.368 74.1919 110.458 73.5948C111.562 72.9977 112.795 72.6992 114.158 72.6992C115.508 72.6992 116.728 72.9977 117.818 73.5948C118.922 74.1919 119.785 75.0292 120.408 76.1066C121.044 77.184 121.362 78.4172 121.362 79.8061C121.362 81.1951 121.044 82.4282 120.408 83.5056C119.785 84.5701 118.922 85.4008 117.818 85.998C116.728 86.5951 115.508 86.8936 114.158 86.8936ZM114.158 84.6544C115.028 84.6544 115.819 84.4597 116.533 84.0703C117.247 83.6679 117.812 83.1032 118.227 82.3763C118.656 81.6364 118.87 80.7797 118.87 79.8061C118.87 78.8456 118.662 78.0018 118.247 77.2749C117.831 76.535 117.267 75.9638 116.553 75.5614C115.839 75.159 115.041 74.9578 114.158 74.9578C113.275 74.9578 112.47 75.159 111.743 75.5614C111.029 75.9638 110.465 76.535 110.049 77.2749C109.634 78.0018 109.426 78.8456 109.426 79.8061C109.426 80.7797 109.634 81.6364 110.049 82.3763C110.478 83.1032 111.049 83.6679 111.763 84.0703C112.49 84.4597 113.288 84.6544 114.158 84.6544ZM125.262 72.9912H127.676L132.233 82.9605L136.789 72.9912H139.203V86.6016H136.867V77.7617L132.817 86.6016H131.649L127.599 77.7617V86.6016H125.262V72.9912ZM143.486 72.9912H148.938C150.431 72.9912 151.625 73.3871 152.52 74.179C153.429 74.9708 153.883 76.0547 153.883 77.4306C153.883 78.8585 153.436 79.9489 152.54 80.7018C151.644 81.4417 150.437 81.8117 148.918 81.8117H145.959V86.6016H143.486V72.9912ZM148.626 79.7672C150.482 79.7672 151.411 78.9883 151.411 77.4306C151.411 75.834 150.482 75.0357 148.626 75.0357H145.959V79.7672H148.626ZM157.393 72.9912H159.866V84.5571H166.408V86.6016H157.393V72.9912ZM169.627 72.9912H178.837V75.0357H172.1V78.7742H177.104V80.8186H172.1V84.5571H178.837V86.6016H169.627V72.9912ZM185.876 75.0357H181.767V72.9912H192.457V75.0357H188.348V86.6016H185.876V75.0357ZM195.959 72.9912H198.432V86.6016H195.959V72.9912ZM209.551 86.8936C208.188 86.8936 206.955 86.6016 205.852 86.0174C204.761 85.4203 203.898 84.5831 203.262 83.5056C202.639 82.4282 202.327 81.1951 202.327 79.8061C202.327 78.4172 202.639 77.184 203.262 76.1066C203.898 75.0292 204.761 74.1919 205.852 73.5948C206.955 72.9977 208.188 72.6992 209.551 72.6992C210.901 72.6992 212.121 72.9977 213.212 73.5948C214.315 74.1919 215.178 75.0292 215.802 76.1066C216.438 77.184 216.756 78.4172 216.756 79.8061C216.756 81.1951 216.438 82.4282 215.802 83.5056C215.178 84.5701 214.315 85.4008 213.212 85.998C212.121 86.5951 210.901 86.8936 209.551 86.8936ZM209.551 84.6544C210.421 84.6544 211.213 84.4597 211.927 84.0703C212.641 83.6679 213.205 83.1032 213.621 82.3763C214.049 81.6364 214.263 80.7797 214.263 79.8061C214.263 78.8456 214.056 78.0018 213.64 77.2749C213.225 76.535 212.66 75.9638 211.946 75.5614C211.232 75.159 210.434 74.9578 209.551 74.9578C208.669 74.9578 207.864 75.159 207.137 75.5614C206.423 75.9638 205.858 76.535 205.443 77.2749C205.027 78.0018 204.82 78.8456 204.82 79.8061C204.82 80.7797 205.027 81.6364 205.443 82.3763C205.871 83.1032 206.442 83.6679 207.156 84.0703C207.883 84.4597 208.682 84.6544 209.551 84.6544ZM220.655 72.9912H222.992L229.359 82.4737V72.9912H231.832V86.6016H229.495L223.128 77.0996V86.6016H220.655V72.9912Z" fill="#1C7349"/>
<path d="M122.78 112.014H121.21V111.551H124.897V112.014H123.327V116.451H122.78V112.014ZM126.298 111.551H126.845V113.724H129.607V111.551H130.154V116.451H129.607V114.187H126.845V116.451H126.298V111.551ZM131.846 111.551H132.393V116.451H131.846V111.551ZM135.384 116.556C135.113 116.556 134.846 116.533 134.585 116.486C134.323 116.439 134.108 116.376 133.94 116.297V115.778C134.379 115.97 134.851 116.066 135.356 116.066C135.776 116.066 136.085 115.998 136.281 115.862C136.482 115.727 136.582 115.524 136.582 115.253C136.582 115.061 136.54 114.909 136.456 114.797C136.377 114.685 136.26 114.591 136.106 114.517C135.952 114.437 135.685 114.32 135.307 114.166C134.844 113.979 134.508 113.776 134.297 113.556C134.092 113.332 133.989 113.049 133.989 112.708C133.989 112.46 134.054 112.241 134.185 112.049C134.321 111.858 134.51 111.71 134.753 111.608C134.996 111.5 135.276 111.446 135.594 111.446C135.851 111.446 136.082 111.467 136.288 111.509C136.498 111.547 136.704 111.61 136.905 111.699V112.196C136.512 112.023 136.101 111.937 135.671 111.937C135.297 111.937 135.015 112.005 134.823 112.14C134.631 112.276 134.536 112.465 134.536 112.708C134.536 112.872 134.575 113.012 134.655 113.129C134.734 113.245 134.858 113.353 135.026 113.451C135.199 113.549 135.435 113.657 135.734 113.773C136.071 113.904 136.335 114.028 136.526 114.145C136.718 114.257 136.865 114.402 136.968 114.58C137.075 114.753 137.129 114.977 137.129 115.253C137.129 115.668 136.982 115.991 136.688 116.22C136.393 116.444 135.959 116.556 135.384 116.556ZM144.465 116.556C143.97 116.556 143.526 116.451 143.133 116.241C142.746 116.031 142.442 115.734 142.222 115.351C142.003 114.963 141.893 114.514 141.893 114.005C141.893 113.495 142.003 113.049 142.222 112.666C142.442 112.278 142.746 111.979 143.133 111.769C143.526 111.554 143.97 111.446 144.465 111.446C145.143 111.446 145.704 111.624 146.148 111.979V112.512C145.727 112.133 145.18 111.944 144.507 111.944C144.11 111.944 143.755 112.028 143.442 112.196C143.129 112.365 142.883 112.605 142.706 112.918C142.528 113.227 142.439 113.589 142.439 114.005C142.439 114.421 142.528 114.785 142.706 115.098C142.888 115.407 143.136 115.645 143.449 115.813C143.762 115.982 144.115 116.066 144.507 116.066C144.858 116.066 145.171 116.019 145.447 115.925C145.722 115.832 145.977 115.678 146.211 115.463V116.003C145.795 116.372 145.213 116.556 144.465 116.556ZM147.752 111.551H150.906V112.014H148.298V113.766H150.254V114.229H148.298V115.989H150.906V116.451H147.752V111.551ZM152.45 111.551H154.343C154.852 111.551 155.238 111.671 155.499 111.909C155.766 112.147 155.899 112.5 155.899 112.967C155.899 113.323 155.794 113.624 155.583 113.872C155.378 114.119 155.09 114.276 154.721 114.341L155.885 116.451H155.317L154.167 114.369H152.997V116.451H152.45V111.551ZM154.273 113.907C154.609 113.907 154.873 113.827 155.065 113.668C155.256 113.509 155.352 113.276 155.352 112.967C155.352 112.622 155.256 112.376 155.065 112.231C154.878 112.087 154.614 112.014 154.273 112.014H152.997V113.907H154.273ZM158.486 112.014H156.916V111.551H160.603V112.014H159.033V116.451H158.486V112.014ZM162.012 111.551H162.559V116.451H162.012V111.551ZM164.246 111.551H167.4V112.014H164.793V113.766H166.748V114.229H164.793V116.451H164.246V111.551ZM168.808 111.551H169.355V116.451H168.808V111.551ZM171.042 111.551H174.196V112.014H171.589V113.766H173.544V114.229H171.589V115.989H174.196V116.451H171.042V111.551ZM177.044 116.556C176.773 116.556 176.507 116.533 176.245 116.486C175.984 116.439 175.769 116.376 175.6 116.297V115.778C176.04 115.97 176.512 116.066 177.016 116.066C177.437 116.066 177.745 115.998 177.942 115.862C178.143 115.727 178.243 115.524 178.243 115.253C178.243 115.061 178.201 114.909 178.117 114.797C178.038 114.685 177.921 114.591 177.766 114.517C177.612 114.437 177.346 114.32 176.967 114.166C176.505 113.979 176.168 113.776 175.958 113.556C175.752 113.332 175.65 113.049 175.65 112.708C175.65 112.46 175.715 112.241 175.846 112.049C175.981 111.858 176.171 111.71 176.414 111.608C176.657 111.5 176.937 111.446 177.255 111.446C177.512 111.446 177.743 111.467 177.949 111.509C178.159 111.547 178.365 111.61 178.566 111.699V112.196C178.173 112.023 177.762 111.937 177.332 111.937C176.958 111.937 176.675 112.005 176.484 112.14C176.292 112.276 176.196 112.465 176.196 112.708C176.196 112.872 176.236 113.012 176.315 113.129C176.395 113.245 176.519 113.353 176.687 113.451C176.86 113.549 177.096 113.657 177.395 113.773C177.731 113.904 177.995 114.028 178.187 114.145C178.379 114.257 178.526 114.402 178.629 114.58C178.736 114.753 178.79 114.977 178.79 115.253C178.79 115.668 178.643 115.991 178.348 116.22C178.054 116.444 177.619 116.556 177.044 116.556ZM184.983 112.014H183.413V111.551H187.1V112.014H185.53V116.451H184.983V112.014ZM188.502 111.551H189.049V113.724H191.81V111.551H192.357V116.451H191.81V114.187H189.049V116.451H188.502V111.551ZM195.858 111.551H196.37L198.325 116.451H197.764L197.239 115.14H194.982L194.463 116.451H193.902L195.858 111.551ZM197.085 114.678L196.11 112.182L195.143 114.678H197.085ZM200.284 112.014H198.714V111.551H202.401V112.014H200.831V116.451H200.284V112.014Z" fill="#1C7349"/>
<path d="M74.3293 150.779H74.8153V152.711H77.2702V150.779H77.7562V155.135H77.2702V153.122H74.8153V155.135H74.3293V150.779ZM80.868 150.779H81.3229L83.0612 155.135H82.5628L82.0955 153.97H80.0892L79.6281 155.135H79.1296L80.868 150.779ZM81.9584 153.558L81.0923 151.34L80.2325 153.558H81.9584ZM85.3138 155.228C85.0729 155.228 84.8361 155.207 84.6035 155.166C84.3709 155.124 84.1798 155.068 84.0303 154.998V154.537C84.4207 154.707 84.8403 154.792 85.2889 154.792C85.6627 154.792 85.9369 154.732 86.1113 154.611C86.29 154.491 86.3793 154.31 86.3793 154.069C86.3793 153.899 86.3419 153.764 86.2671 153.664C86.1965 153.565 86.0927 153.482 85.9556 153.415C85.8185 153.344 85.5817 153.241 85.2453 153.104C84.834 152.937 84.535 152.757 84.348 152.561C84.1653 152.362 84.0739 152.111 84.0739 151.808C84.0739 151.587 84.132 151.392 84.2483 151.222C84.3688 151.052 84.537 150.921 84.753 150.829C84.969 150.734 85.2183 150.686 85.5007 150.686C85.7292 150.686 85.9348 150.705 86.1176 150.742C86.3045 150.775 86.4873 150.831 86.6659 150.91V151.353C86.317 151.199 85.9514 151.122 85.5693 151.122C85.237 151.122 84.9857 151.182 84.8153 151.303C84.645 151.423 84.5599 151.592 84.5599 151.808C84.5599 151.953 84.5952 152.078 84.6658 152.181C84.7364 152.285 84.8465 152.381 84.996 152.468C85.1497 152.555 85.3595 152.651 85.6253 152.755C85.9244 152.871 86.1591 152.981 86.3294 153.085C86.4997 153.185 86.6306 153.313 86.722 153.471C86.8175 153.625 86.8653 153.824 86.8653 154.069C86.8653 154.439 86.7344 154.726 86.4727 154.929C86.211 155.129 85.8247 155.228 85.3138 155.228ZM92.3831 155.228C92.1421 155.228 91.9054 155.207 91.6727 155.166C91.4401 155.124 91.2491 155.068 91.0995 154.998V154.537C91.49 154.707 91.9095 154.792 92.3581 154.792C92.732 154.792 93.0061 154.732 93.1806 154.611C93.3592 154.491 93.4485 154.31 93.4485 154.069C93.4485 153.899 93.4111 153.764 93.3364 153.664C93.2657 153.565 93.1619 153.482 93.0248 153.415C92.8877 153.344 92.651 153.241 92.3145 153.104C91.9033 152.937 91.6042 152.757 91.4173 152.561C91.2345 152.362 91.1431 152.111 91.1431 151.808C91.1431 151.587 91.2013 151.392 91.3176 151.222C91.4381 151.052 91.6063 150.921 91.8223 150.829C92.0383 150.734 92.2875 150.686 92.57 150.686C92.7984 150.686 93.0041 150.705 93.1868 150.742C93.3737 150.775 93.5565 150.831 93.7351 150.91V151.353C93.3862 151.199 93.0207 151.122 92.6385 151.122C92.3062 151.122 92.0549 151.182 91.8846 151.303C91.7143 151.423 91.6291 151.592 91.6291 151.808C91.6291 151.953 91.6644 152.078 91.7351 152.181C91.8057 152.285 91.9157 152.381 92.0653 152.468C92.219 152.555 92.4287 152.651 92.6946 152.755C92.9937 152.871 93.2284 152.981 93.3987 153.085C93.569 153.185 93.6998 153.313 93.7912 153.471C93.8867 153.625 93.9345 153.824 93.9345 154.069C93.9345 154.439 93.8037 154.726 93.542 154.929C93.2803 155.129 92.894 155.228 92.3831 155.228ZM97.0106 155.228C96.4373 155.228 96.0033 155.083 95.7083 154.792C95.4176 154.501 95.2722 154.096 95.2722 153.577V150.779H95.7582V153.614C95.7582 154.009 95.8683 154.304 96.0884 154.499C96.3086 154.694 96.6159 154.792 97.0106 154.792C97.4052 154.792 97.7126 154.694 97.9327 154.499C98.1529 154.304 98.2629 154.009 98.2629 153.614V150.779H98.7489V153.577C98.7489 154.096 98.6015 154.501 98.3066 154.792C98.0158 155.083 97.5838 155.228 97.0106 155.228ZM102.378 155.228C101.938 155.228 101.543 155.135 101.194 154.948C100.85 154.761 100.58 154.497 100.384 154.157C100.189 153.812 100.092 153.413 100.092 152.96C100.092 152.507 100.189 152.111 100.384 151.77C100.58 151.425 100.85 151.16 101.194 150.973C101.543 150.782 101.938 150.686 102.378 150.686C102.981 150.686 103.479 150.844 103.874 151.16V151.633C103.5 151.297 103.014 151.128 102.416 151.128C102.063 151.128 101.747 151.203 101.469 151.353C101.19 151.502 100.972 151.716 100.814 151.994C100.656 152.269 100.578 152.591 100.578 152.96C100.578 153.33 100.656 153.654 100.814 153.932C100.976 154.206 101.196 154.418 101.475 154.568C101.753 154.717 102.067 154.792 102.416 154.792C102.727 154.792 103.005 154.751 103.251 154.667C103.496 154.584 103.722 154.447 103.93 154.256V154.736C103.56 155.064 103.043 155.228 102.378 155.228ZM107.303 155.228C106.863 155.228 106.468 155.135 106.119 154.948C105.775 154.761 105.505 154.497 105.309 154.157C105.114 153.812 105.017 153.413 105.017 152.96C105.017 152.507 105.114 152.111 105.309 151.77C105.505 151.425 105.775 151.16 106.119 150.973C106.468 150.782 106.863 150.686 107.303 150.686C107.906 150.686 108.404 150.844 108.799 151.16V151.633C108.425 151.297 107.939 151.128 107.341 151.128C106.988 151.128 106.672 151.203 106.394 151.353C106.115 151.502 105.897 151.716 105.739 151.994C105.581 152.269 105.503 152.591 105.503 152.96C105.503 153.33 105.581 153.654 105.739 153.932C105.901 154.206 106.121 154.418 106.4 154.568C106.678 154.717 106.992 154.792 107.341 154.792C107.652 154.792 107.93 154.751 108.176 154.667C108.421 154.584 108.647 154.447 108.855 154.256V154.736C108.485 155.064 107.968 155.228 107.303 155.228ZM110.224 150.779H113.028V151.191H110.71V152.748H112.449V153.16H110.71V154.724H113.028V155.135H110.224V150.779ZM115.56 155.228C115.319 155.228 115.082 155.207 114.85 155.166C114.617 155.124 114.426 155.068 114.276 154.998V154.537C114.667 154.707 115.086 154.792 115.535 154.792C115.909 154.792 116.183 154.732 116.357 154.611C116.536 154.491 116.625 154.31 116.625 154.069C116.625 153.899 116.588 153.764 116.513 153.664C116.443 153.565 116.339 153.482 116.202 153.415C116.065 153.344 115.828 153.241 115.491 153.104C115.08 152.937 114.781 152.757 114.594 152.561C114.411 152.362 114.32 152.111 114.32 151.808C114.32 151.587 114.378 151.392 114.494 151.222C114.615 151.052 114.783 150.921 114.999 150.829C115.215 150.734 115.464 150.686 115.747 150.686C115.975 150.686 116.181 150.705 116.364 150.742C116.551 150.775 116.733 150.831 116.912 150.91V151.353C116.563 151.199 116.197 151.122 115.815 151.122C115.483 151.122 115.232 151.182 115.061 151.303C114.891 151.423 114.806 151.592 114.806 151.808C114.806 151.953 114.841 152.078 114.912 152.181C114.982 152.285 115.093 152.381 115.242 152.468C115.396 152.555 115.606 152.651 115.871 152.755C116.17 152.871 116.405 152.981 116.575 153.085C116.746 153.185 116.877 153.313 116.968 153.471C117.064 153.625 117.111 153.824 117.111 154.069C117.111 154.439 116.98 154.726 116.719 154.929C116.457 155.129 116.071 155.228 115.56 155.228ZM119.42 155.228C119.179 155.228 118.942 155.207 118.71 155.166C118.477 155.124 118.286 155.068 118.136 154.998V154.537C118.527 154.707 118.946 154.792 119.395 154.792C119.769 154.792 120.043 154.732 120.218 154.611C120.396 154.491 120.485 154.31 120.485 154.069C120.485 153.899 120.448 153.764 120.373 153.664C120.303 153.565 120.199 153.482 120.062 153.415C119.925 153.344 119.688 153.241 119.351 153.104C118.94 152.937 118.641 152.757 118.454 152.561C118.271 152.362 118.18 152.111 118.18 151.808C118.18 151.587 118.238 151.392 118.355 151.222C118.475 151.052 118.643 150.921 118.859 150.829C119.075 150.734 119.324 150.686 119.607 150.686C119.835 150.686 120.041 150.705 120.224 150.742C120.411 150.775 120.593 150.831 120.772 150.91V151.353C120.423 151.199 120.058 151.122 119.675 151.122C119.343 151.122 119.092 151.182 118.922 151.303C118.751 151.423 118.666 151.592 118.666 151.808C118.666 151.953 118.701 152.078 118.772 152.181C118.843 152.285 118.953 152.381 119.102 152.468C119.256 152.555 119.466 152.651 119.732 152.755C120.031 152.871 120.265 152.981 120.436 153.085C120.606 153.185 120.737 153.313 120.828 153.471C120.924 153.625 120.971 153.824 120.971 154.069C120.971 154.439 120.841 154.726 120.579 154.929C120.317 155.129 119.931 155.228 119.42 155.228ZM122.34 150.779H125.144V151.191H122.826V152.748H124.565V153.16H122.826V155.135H122.34V150.779ZM128.096 155.228C127.523 155.228 127.089 155.083 126.794 154.792C126.503 154.501 126.358 154.096 126.358 153.577V150.779H126.844V153.614C126.844 154.009 126.954 154.304 127.174 154.499C127.394 154.694 127.702 154.792 128.096 154.792C128.491 154.792 128.798 154.694 129.018 154.499C129.239 154.304 129.349 154.009 129.349 153.614V150.779H129.835V153.577C129.835 154.096 129.687 154.501 129.392 154.792C129.101 155.083 128.669 155.228 128.096 155.228ZM131.302 150.779H131.788V154.724H134.106V155.135H131.302V150.779ZM135.32 150.779H135.806V154.724H138.124V155.135H135.32V150.779ZM140.018 153.484L138.435 150.779H138.952L140.261 153.041L141.575 150.779H142.086L140.504 153.484V155.135H140.018V153.484ZM148.606 155.228C148.166 155.228 147.771 155.135 147.423 154.948C147.078 154.761 146.808 154.497 146.613 154.157C146.417 153.812 146.32 153.413 146.32 152.96C146.32 152.507 146.417 152.111 146.613 151.77C146.808 151.425 147.078 151.16 147.423 150.973C147.771 150.782 148.166 150.686 148.606 150.686C149.209 150.686 149.707 150.844 150.102 151.16V151.633C149.728 151.297 149.242 151.128 148.644 151.128C148.291 151.128 147.975 151.203 147.697 151.353C147.418 151.502 147.2 151.716 147.042 151.994C146.885 152.269 146.806 152.591 146.806 152.96C146.806 153.33 146.885 153.654 147.042 153.932C147.204 154.206 147.425 154.418 147.703 154.568C147.981 154.717 148.295 154.792 148.644 154.792C148.955 154.792 149.234 154.751 149.479 154.667C149.724 154.584 149.95 154.447 150.158 154.256V154.736C149.788 155.064 149.271 155.228 148.606 155.228ZM153.525 155.228C153.097 155.228 152.709 155.135 152.36 154.948C152.015 154.757 151.743 154.489 151.544 154.144C151.344 153.799 151.245 153.405 151.245 152.96C151.245 152.516 151.344 152.121 151.544 151.776C151.743 151.432 152.015 151.164 152.36 150.973C152.705 150.782 153.093 150.686 153.525 150.686C153.957 150.686 154.346 150.782 154.69 150.973C155.035 151.164 155.307 151.432 155.507 151.776C155.706 152.121 155.806 152.516 155.806 152.96C155.806 153.405 155.706 153.799 155.507 154.144C155.307 154.489 155.033 154.757 154.684 154.948C154.339 155.135 153.953 155.228 153.525 155.228ZM153.525 154.792C153.857 154.792 154.161 154.717 154.435 154.568C154.709 154.418 154.925 154.206 155.083 153.932C155.241 153.654 155.32 153.33 155.32 152.96C155.32 152.595 155.241 152.275 155.083 152.001C154.929 151.722 154.715 151.508 154.441 151.359C154.171 151.205 153.87 151.128 153.538 151.128C153.201 151.128 152.896 151.203 152.622 151.353C152.348 151.502 152.129 151.716 151.967 151.994C151.81 152.273 151.731 152.595 151.731 152.96C151.731 153.33 151.81 153.654 151.967 153.932C152.125 154.206 152.341 154.418 152.615 154.568C152.89 154.717 153.193 154.792 153.525 154.792ZM157.177 150.779H157.675L159.32 154.375L160.965 150.779H161.463V155.135H160.984V151.77L159.445 155.135H159.195L157.656 151.77V155.135H157.177V150.779ZM162.96 150.779H164.573C165.03 150.779 165.385 150.887 165.639 151.103C165.896 151.319 166.025 151.639 166.025 152.063C166.025 152.491 165.898 152.811 165.645 153.023C165.392 153.234 165.034 153.34 164.573 153.34H163.446V155.135H162.96V150.779ZM164.536 152.929C164.847 152.929 165.093 152.867 165.271 152.742C165.45 152.613 165.539 152.387 165.539 152.063C165.539 151.735 165.45 151.508 165.271 151.384C165.093 151.255 164.847 151.191 164.536 151.191H163.446V152.929H164.536ZM167.27 150.779H167.756V154.724H170.074V155.135H167.27V150.779ZM171.197 150.779H174.001V151.191H171.683V152.748H173.421V153.16H171.683V154.724H174.001V155.135H171.197V150.779ZM176.52 151.191H175.124V150.779H178.402V151.191H177.006V155.135H176.52V151.191ZM179.648 150.779H182.451V151.191H180.134V152.748H181.872V153.16H180.134V154.724H182.451V155.135H179.648V150.779ZM183.824 150.779H185.17C185.635 150.779 186.038 150.867 186.379 151.041C186.723 151.216 186.987 151.465 187.17 151.789C187.353 152.113 187.444 152.495 187.444 152.935C187.444 153.662 187.236 154.211 186.821 154.58C186.406 154.95 185.822 155.135 185.07 155.135H183.824V150.779ZM185.039 154.724C185.695 154.724 186.179 154.574 186.491 154.275C186.802 153.972 186.958 153.525 186.958 152.935C186.958 152.387 186.807 151.959 186.503 151.652C186.2 151.344 185.754 151.191 185.164 151.191H184.31V154.724H185.039ZM192.952 151.191H191.557V150.779H194.834V151.191H193.438V155.135H192.952V151.191ZM196.08 150.779H196.566V152.711H199.021V150.779H199.507V155.135H199.021V153.122H196.566V155.135H196.08V150.779ZM201.005 150.779H203.809V151.191H201.491V152.748H203.229V153.16H201.491V154.724H203.809V155.135H201.005V150.779ZM210.334 155.228C209.893 155.228 209.499 155.135 209.15 154.948C208.805 154.761 208.535 154.497 208.34 154.157C208.145 153.812 208.047 153.413 208.047 152.96C208.047 152.507 208.145 152.111 208.34 151.77C208.535 151.425 208.805 151.16 209.15 150.973C209.499 150.782 209.893 150.686 210.334 150.686C210.936 150.686 211.434 150.844 211.829 151.16V151.633C211.455 151.297 210.969 151.128 210.371 151.128C210.018 151.128 209.702 151.203 209.424 151.353C209.146 151.502 208.928 151.716 208.77 151.994C208.612 152.269 208.533 152.591 208.533 152.96C208.533 153.33 208.612 153.654 208.77 153.932C208.932 154.206 209.152 154.418 209.43 154.568C209.708 154.717 210.022 154.792 210.371 154.792C210.683 154.792 210.961 154.751 211.206 154.667C211.451 154.584 211.677 154.447 211.885 154.256V154.736C211.515 155.064 210.998 155.228 210.334 155.228ZM215.252 155.228C214.825 155.228 214.436 155.135 214.087 154.948C213.742 154.757 213.47 154.489 213.271 154.144C213.072 153.799 212.972 153.405 212.972 152.96C212.972 152.516 213.072 152.121 213.271 151.776C213.47 151.432 213.742 151.164 214.087 150.973C214.432 150.782 214.82 150.686 215.252 150.686C215.684 150.686 216.073 150.782 216.418 150.973C216.762 151.164 217.034 151.432 217.234 151.776C217.433 152.121 217.533 152.516 217.533 152.96C217.533 153.405 217.433 153.799 217.234 154.144C217.034 154.489 216.76 154.757 216.411 154.948C216.067 155.135 215.68 155.228 215.252 155.228ZM215.252 154.792C215.585 154.792 215.888 154.717 216.162 154.568C216.436 154.418 216.652 154.206 216.81 153.932C216.968 153.654 217.047 153.33 217.047 152.96C217.047 152.595 216.968 152.275 216.81 152.001C216.656 151.722 216.442 151.508 216.168 151.359C215.898 151.205 215.597 151.128 215.265 151.128C214.928 151.128 214.623 151.203 214.349 151.353C214.075 151.502 213.857 151.716 213.695 151.994C213.537 152.273 213.458 152.595 213.458 152.96C213.458 153.33 213.537 153.654 213.695 153.932C213.853 154.206 214.069 154.418 214.343 154.568C214.617 154.717 214.92 154.792 215.252 154.792ZM220.611 155.228C220.038 155.228 219.604 155.083 219.309 154.792C219.018 154.501 218.873 154.096 218.873 153.577V150.779H219.359V153.614C219.359 154.009 219.469 154.304 219.689 154.499C219.909 154.694 220.216 154.792 220.611 154.792C221.006 154.792 221.313 154.694 221.533 154.499C221.753 154.304 221.863 154.009 221.863 153.614V150.779H222.349V153.577C222.349 154.096 222.202 154.501 221.907 154.792C221.616 155.083 221.184 155.228 220.611 155.228ZM223.817 150.779H225.499C225.952 150.779 226.294 150.885 226.527 151.097C226.764 151.309 226.882 151.623 226.882 152.038C226.882 152.354 226.789 152.622 226.602 152.842C226.419 153.062 226.164 153.201 225.835 153.259L226.87 155.135H226.365L225.343 153.284H224.303V155.135H223.817V150.779ZM225.437 152.873C225.736 152.873 225.97 152.802 226.141 152.661C226.311 152.52 226.396 152.312 226.396 152.038C226.396 151.731 226.311 151.513 226.141 151.384C225.975 151.255 225.74 151.191 225.437 151.191H224.303V152.873H225.437ZM229.414 155.228C229.173 155.228 228.936 155.207 228.703 155.166C228.471 155.124 228.28 155.068 228.13 154.998V154.537C228.521 154.707 228.94 154.792 229.389 154.792C229.763 154.792 230.037 154.732 230.211 154.611C230.39 154.491 230.479 154.31 230.479 154.069C230.479 153.899 230.442 153.764 230.367 153.664C230.296 153.565 230.193 153.482 230.055 153.415C229.918 153.344 229.682 153.241 229.345 153.104C228.934 152.937 228.635 152.757 228.448 152.561C228.265 152.362 228.174 152.111 228.174 151.808C228.174 151.587 228.232 151.392 228.348 151.222C228.469 151.052 228.637 150.921 228.853 150.829C229.069 150.734 229.318 150.686 229.601 150.686C229.829 150.686 230.035 150.705 230.217 150.742C230.404 150.775 230.587 150.831 230.766 150.91V151.353C230.417 151.199 230.051 151.122 229.669 151.122C229.337 151.122 229.086 151.182 228.915 151.303C228.745 151.423 228.66 151.592 228.66 151.808C228.66 151.953 228.695 152.078 228.766 152.181C228.836 152.285 228.946 152.381 229.096 152.468C229.25 152.555 229.459 152.651 229.725 152.755C230.024 152.871 230.259 152.981 230.429 153.085C230.6 153.185 230.73 153.313 230.822 153.471C230.917 153.625 230.965 153.824 230.965 154.069C230.965 154.439 230.834 154.726 230.573 154.929C230.311 155.129 229.925 155.228 229.414 155.228ZM232.334 150.779H235.138V151.191H232.82V152.748H234.558V153.16H232.82V154.724H235.138V155.135H232.334V150.779ZM241.656 155.228C241.229 155.228 240.84 155.135 240.491 154.948C240.147 154.757 239.874 154.489 239.675 154.144C239.476 153.799 239.376 153.405 239.376 152.96C239.376 152.516 239.476 152.121 239.675 151.776C239.874 151.432 240.147 151.164 240.491 150.973C240.836 150.782 241.224 150.686 241.656 150.686C242.088 150.686 242.477 150.782 242.822 150.973C243.166 151.164 243.438 151.432 243.638 151.776C243.837 152.121 243.937 152.516 243.937 152.96C243.937 153.405 243.837 153.799 243.638 154.144C243.438 154.489 243.164 154.757 242.815 154.948C242.471 155.135 242.084 155.228 241.656 155.228ZM241.656 154.792C241.989 154.792 242.292 154.717 242.566 154.568C242.84 154.418 243.056 154.206 243.214 153.932C243.372 153.654 243.451 153.33 243.451 152.96C243.451 152.595 243.372 152.275 243.214 152.001C243.06 151.722 242.847 151.508 242.572 151.359C242.302 151.205 242.001 151.128 241.669 151.128C241.332 151.128 241.027 151.203 240.753 151.353C240.479 151.502 240.261 151.716 240.099 151.994C239.941 152.273 239.862 152.595 239.862 152.96C239.862 153.33 239.941 153.654 240.099 153.932C240.257 154.206 240.473 154.418 240.747 154.568C241.021 154.717 241.324 154.792 241.656 154.792ZM245.308 150.779H245.775L248.174 154.306V150.779H248.66V155.135H248.193L245.794 151.602V155.135H245.308V150.779ZM134.227 159.231H135.629V159.767H134.863V164.203H135.629V164.733H134.227V159.231ZM139.054 164.228C138.606 164.228 138.207 164.135 137.858 163.948C137.509 163.761 137.237 163.497 137.042 163.157C136.847 162.812 136.749 162.413 136.749 161.96C136.749 161.507 136.847 161.109 137.042 160.764C137.237 160.419 137.509 160.153 137.858 159.966C138.207 159.779 138.606 159.686 139.054 159.686C139.652 159.686 140.153 159.838 140.556 160.141V160.751C140.195 160.432 139.713 160.272 139.11 160.272C138.774 160.272 138.475 160.34 138.213 160.477C137.956 160.614 137.754 160.812 137.609 161.069C137.463 161.323 137.391 161.62 137.391 161.96C137.391 162.301 137.463 162.6 137.609 162.857C137.758 163.115 137.962 163.312 138.219 163.449C138.481 163.586 138.778 163.655 139.11 163.655C139.418 163.655 139.692 163.616 139.933 163.537C140.178 163.454 140.404 163.323 140.612 163.144V163.761C140.238 164.072 139.719 164.228 139.054 164.228ZM143.93 164.228C143.498 164.228 143.108 164.135 142.759 163.948C142.41 163.757 142.136 163.489 141.936 163.144C141.737 162.799 141.637 162.405 141.637 161.96C141.637 161.516 141.737 161.121 141.936 160.776C142.136 160.432 142.41 160.164 142.759 159.973C143.108 159.782 143.498 159.686 143.93 159.686C144.362 159.686 144.753 159.782 145.102 159.973C145.451 160.164 145.725 160.432 145.924 160.776C146.124 161.121 146.223 161.516 146.223 161.96C146.223 162.405 146.124 162.799 145.924 163.144C145.725 163.489 145.451 163.757 145.102 163.948C144.753 164.135 144.362 164.228 143.93 164.228ZM143.93 163.655C144.238 163.655 144.516 163.586 144.765 163.449C145.019 163.308 145.218 163.111 145.363 162.857C145.509 162.6 145.581 162.301 145.581 161.96C145.581 161.624 145.509 161.329 145.363 161.075C145.222 160.818 145.027 160.621 144.778 160.484C144.528 160.342 144.25 160.272 143.943 160.272C143.631 160.272 143.349 160.34 143.095 160.477C142.846 160.614 142.647 160.812 142.497 161.069C142.352 161.327 142.279 161.624 142.279 161.96C142.279 162.301 142.352 162.6 142.497 162.857C142.643 163.111 142.84 163.308 143.089 163.449C143.343 163.586 143.623 163.655 143.93 163.655ZM149.302 164.228C148.708 164.228 148.26 164.077 147.956 163.773C147.653 163.466 147.502 163.044 147.502 162.509V159.779H148.137V162.533C148.137 162.903 148.241 163.184 148.449 163.375C148.656 163.562 148.941 163.655 149.302 163.655C149.66 163.655 149.942 163.562 150.15 163.375C150.357 163.184 150.461 162.903 150.461 162.533V159.779H151.097V162.509C151.097 163.04 150.945 163.46 150.642 163.767C150.339 164.075 149.892 164.228 149.302 164.228ZM152.5 159.779H154.251C154.716 159.779 155.074 159.892 155.323 160.116C155.572 160.34 155.697 160.668 155.697 161.1C155.697 161.42 155.612 161.692 155.441 161.917C155.271 162.137 155.03 162.286 154.718 162.365L155.678 164.135H155.018L154.089 162.415H153.136V164.135H152.5V159.779ZM154.145 161.879C154.424 161.879 154.644 161.815 154.806 161.686C154.972 161.553 155.055 161.358 155.055 161.1C155.055 160.818 154.974 160.616 154.812 160.496C154.654 160.376 154.432 160.315 154.145 160.315H153.136V161.879H154.145ZM158.214 164.228C157.965 164.228 157.718 164.205 157.473 164.16C157.232 164.118 157.035 164.06 156.881 163.985V163.412C157.28 163.599 157.71 163.692 158.171 163.692C158.819 163.692 159.143 163.474 159.143 163.038C159.143 162.889 159.107 162.768 159.037 162.677C158.966 162.585 158.864 162.506 158.731 162.44C158.598 162.369 158.382 162.274 158.083 162.153C157.672 161.987 157.375 161.804 157.192 161.605C157.01 161.406 156.918 161.154 156.918 160.851C156.918 160.623 156.981 160.421 157.105 160.247C157.23 160.068 157.404 159.931 157.629 159.836C157.853 159.736 158.11 159.686 158.401 159.686C158.638 159.686 158.852 159.705 159.043 159.742C159.234 159.779 159.421 159.84 159.604 159.923V160.471C159.242 160.309 158.877 160.228 158.507 160.228C158.208 160.228 157.98 160.282 157.822 160.39C157.664 160.498 157.585 160.652 157.585 160.851C157.585 160.988 157.618 161.105 157.685 161.2C157.755 161.291 157.857 161.375 157.99 161.449C158.127 161.52 158.328 161.609 158.594 161.717C158.889 161.838 159.122 161.952 159.292 162.06C159.462 162.168 159.591 162.301 159.678 162.459C159.77 162.612 159.816 162.806 159.816 163.038C159.816 163.416 159.681 163.709 159.411 163.917C159.141 164.124 158.742 164.228 158.214 164.228ZM161.121 159.779H163.994V160.315H161.757V161.692H163.427V162.222H161.757V163.605H163.994V164.135H161.121V159.779ZM168.203 159.779H168.807L171.025 163.063V159.779H171.667V164.135H171.056L168.838 160.851V164.135H168.203V159.779ZM174.711 159.779H175.322L177.06 164.135H176.412L175.976 163.051H174.05L173.627 164.135H172.973L174.711 159.779ZM175.801 162.521L175.016 160.484L174.231 162.521H175.801ZM178.211 159.779H178.846L180.398 163.175L181.949 159.779H182.585V164.135H181.968V161.038L180.554 164.135H180.242L178.821 161.038V164.135H178.211V159.779ZM184.018 159.779H186.89V160.315H184.654V161.692H186.323V162.222H184.654V163.605H186.89V164.135H184.018V159.779ZM187.983 164.203H188.744V159.767H187.983V159.231H189.385V164.733H187.983V164.203Z" fill="#1C7349"/>
<path d="M80.5216 127.213H83.8512V128.486H82.031V139.022H83.8512V140.28H80.5216V127.213ZM87.2649 128.516H91.4232C92.5281 128.516 93.3765 128.782 93.9685 129.315C94.5604 129.847 94.8564 130.627 94.8564 131.653C94.8564 132.412 94.6541 133.059 94.2496 133.591C93.8452 134.114 93.273 134.469 92.5331 134.657L94.812 138.859H93.2434L91.0384 134.775H88.7743V138.859H87.2649V128.516ZM91.1716 133.502C91.8326 133.502 92.3555 133.35 92.7402 133.044C93.1348 132.728 93.3322 132.264 93.3322 131.653C93.3322 130.982 93.1398 130.503 92.755 130.217C92.3801 129.931 91.8523 129.788 91.1716 129.788H88.7743V133.502H91.1716ZM101.738 139.081C100.425 139.081 99.3945 138.756 98.6448 138.105C97.9049 137.444 97.5349 136.516 97.5349 135.323C97.5349 134.159 97.8654 133.236 98.5264 132.555C99.1972 131.875 100.149 131.534 101.382 131.534C102.201 131.534 102.897 131.692 103.469 132.008C104.041 132.314 104.47 132.743 104.756 133.295C105.052 133.838 105.2 134.459 105.2 135.16V135.9H98.9555C99.0049 136.571 99.286 137.074 99.799 137.409C100.322 137.735 101.027 137.898 101.915 137.898C102.369 137.898 102.828 137.858 103.291 137.779C103.755 137.69 104.164 137.577 104.52 137.439V138.637C104.204 138.766 103.785 138.869 103.262 138.948C102.749 139.037 102.241 139.081 101.738 139.081ZM103.795 134.849C103.775 134.178 103.553 133.66 103.129 133.295C102.714 132.92 102.122 132.733 101.353 132.733C100.603 132.733 100.021 132.925 99.6067 133.31C99.1923 133.695 98.9753 134.208 98.9555 134.849H103.795ZM112.516 139.081C111.727 139.081 111.027 138.933 110.415 138.637C109.803 138.341 109.325 137.912 108.98 137.35C108.644 136.778 108.477 136.102 108.477 135.323C108.477 134.543 108.644 133.872 108.98 133.31C109.325 132.738 109.803 132.299 110.415 131.993C111.037 131.687 111.747 131.534 112.546 131.534C113.631 131.534 114.499 131.746 115.151 132.171V133.399C114.509 132.955 113.69 132.733 112.694 132.733C111.885 132.733 111.229 132.955 110.726 133.399C110.233 133.833 109.986 134.474 109.986 135.323C109.986 136.171 110.233 136.812 110.726 137.246C111.219 137.68 111.865 137.898 112.664 137.898C113.661 137.898 114.519 137.661 115.239 137.187V138.401C114.894 138.637 114.499 138.81 114.055 138.919C113.621 139.027 113.108 139.081 112.516 139.081ZM119.677 130.365C119.43 130.365 119.223 130.281 119.055 130.114C118.888 129.946 118.804 129.739 118.804 129.492C118.804 129.246 118.888 129.038 119.055 128.871C119.223 128.703 119.43 128.619 119.677 128.619C119.933 128.619 120.145 128.703 120.313 128.871C120.491 129.038 120.58 129.246 120.58 129.492C120.58 129.739 120.491 129.946 120.313 130.114C120.145 130.281 119.933 130.365 119.677 130.365ZM118.922 131.756H120.446V138.859H118.922V131.756ZM124.442 131.756H125.892V132.807C126.622 131.959 127.609 131.534 128.852 131.534C129.562 131.534 130.198 131.692 130.761 132.008C131.333 132.324 131.777 132.768 132.092 133.34C132.418 133.902 132.581 134.558 132.581 135.308C132.581 136.048 132.418 136.704 132.092 137.276C131.777 137.848 131.338 138.292 130.775 138.608C130.213 138.923 129.572 139.081 128.852 139.081C128.26 139.081 127.707 138.983 127.194 138.785C126.681 138.588 126.262 138.297 125.936 137.912V142.1H124.442V131.756ZM128.511 137.898C128.995 137.898 129.429 137.794 129.814 137.587C130.208 137.37 130.514 137.064 130.731 136.669C130.958 136.275 131.071 135.821 131.071 135.308C131.071 134.795 130.958 134.346 130.731 133.961C130.514 133.567 130.208 133.266 129.814 133.059C129.429 132.841 128.995 132.733 128.511 132.733C127.91 132.733 127.377 132.891 126.913 133.207C126.459 133.522 126.134 133.956 125.936 134.509V136.107C126.104 136.65 126.425 137.084 126.898 137.409C127.372 137.735 127.91 137.898 128.511 137.898ZM137.023 130.365C136.776 130.365 136.569 130.281 136.401 130.114C136.233 129.946 136.149 129.739 136.149 129.492C136.149 129.246 136.233 129.038 136.401 128.871C136.569 128.703 136.776 128.619 137.023 128.619C137.279 128.619 137.491 128.703 137.659 128.871C137.836 129.038 137.925 129.246 137.925 129.492C137.925 129.739 137.836 129.946 137.659 130.114C137.491 130.281 137.279 130.365 137.023 130.365ZM136.268 131.756H137.792V138.859H136.268V131.756ZM145.694 139.081C144.382 139.081 143.351 138.756 142.601 138.105C141.862 137.444 141.492 136.516 141.492 135.323C141.492 134.159 141.822 133.236 142.483 132.555C143.154 131.875 144.106 131.534 145.339 131.534C146.158 131.534 146.853 131.692 147.426 132.008C147.998 132.314 148.427 132.743 148.713 133.295C149.009 133.838 149.157 134.459 149.157 135.16V135.9H142.912C142.962 136.571 143.243 137.074 143.756 137.409C144.279 137.735 144.984 137.898 145.872 137.898C146.326 137.898 146.784 137.858 147.248 137.779C147.712 137.69 148.121 137.577 148.476 137.439V138.637C148.161 138.766 147.741 138.869 147.218 138.948C146.705 139.037 146.197 139.081 145.694 139.081ZM147.751 134.849C147.731 134.178 147.509 133.66 147.085 133.295C146.671 132.92 146.079 132.733 145.309 132.733C144.56 132.733 143.978 132.925 143.563 133.31C143.149 133.695 142.932 134.208 142.912 134.849H147.751ZM152.729 131.756H154.179V132.777C154.515 132.353 154.924 132.042 155.408 131.845C155.901 131.638 156.414 131.534 156.947 131.534C157.894 131.534 158.599 131.786 159.063 132.289C159.526 132.792 159.758 133.468 159.758 134.316V138.859H158.264V134.464C158.264 133.31 157.711 132.733 156.606 132.733C156.133 132.733 155.689 132.846 155.274 133.073C154.87 133.29 154.52 133.626 154.224 134.08V138.859H152.729V131.756ZM166.278 139.081C165.558 139.081 165.001 138.874 164.606 138.46C164.222 138.045 164.029 137.458 164.029 136.699V132.911H162.949V131.756H164.029V129.625H165.539V131.756H167.285V132.911H165.539V136.595C165.539 137.069 165.627 137.404 165.805 137.602C165.992 137.799 166.328 137.898 166.811 137.898C167.097 137.898 167.383 137.833 167.669 137.705V138.889C167.295 139.017 166.831 139.081 166.278 139.081ZM171.319 128.294H172.799L171.63 131.179H170.342L171.319 128.294ZM178.462 139.081C177.969 139.081 177.446 139.017 176.894 138.889C176.341 138.771 175.907 138.608 175.591 138.401V137.128C175.976 137.355 176.42 137.542 176.923 137.69C177.426 137.828 177.915 137.898 178.388 137.898C178.921 137.898 179.311 137.833 179.557 137.705C179.804 137.577 179.927 137.37 179.927 137.084C179.927 136.867 179.868 136.694 179.75 136.566C179.641 136.428 179.449 136.304 179.173 136.196C178.906 136.087 178.502 135.959 177.959 135.811C177.377 135.643 176.913 135.476 176.568 135.308C176.233 135.13 175.976 134.908 175.799 134.642C175.631 134.376 175.547 134.03 175.547 133.606C175.547 132.925 175.813 132.412 176.346 132.067C176.889 131.712 177.614 131.534 178.521 131.534C178.995 131.534 179.459 131.579 179.912 131.668C180.366 131.756 180.731 131.88 181.008 132.037V133.281C180.721 133.113 180.366 132.98 179.942 132.881C179.528 132.782 179.103 132.733 178.669 132.733C178.147 132.733 177.747 132.797 177.471 132.925C177.195 133.054 177.056 133.281 177.056 133.606C177.056 133.813 177.116 133.981 177.234 134.109C177.352 134.237 177.54 134.351 177.796 134.45C178.063 134.538 178.482 134.657 179.054 134.805C179.952 135.051 180.573 135.342 180.919 135.678C181.274 136.013 181.451 136.477 181.451 137.069C181.451 137.68 181.2 138.169 180.697 138.534C180.194 138.899 179.449 139.081 178.462 139.081ZM192.437 128.516H193.873L199.141 136.314V128.516H200.665V138.859H199.215L193.947 131.061V138.859H192.437V128.516ZM207.066 139.081C206.207 139.081 205.517 138.864 204.994 138.43C204.481 137.986 204.225 137.389 204.225 136.64C204.225 135.85 204.471 135.244 204.964 134.82C205.468 134.385 206.178 134.168 207.095 134.168C208.072 134.168 208.901 134.366 209.581 134.76V134.39C209.581 133.828 209.409 133.414 209.064 133.147C208.728 132.871 208.195 132.733 207.465 132.733C207.031 132.733 206.607 132.777 206.193 132.866C205.788 132.945 205.423 133.059 205.098 133.207V131.993C205.394 131.855 205.778 131.746 206.252 131.668C206.725 131.579 207.184 131.534 207.628 131.534C208.802 131.534 209.67 131.796 210.233 132.319C210.805 132.832 211.091 133.547 211.091 134.464V138.859H209.685V138.06C209.379 138.396 209.014 138.652 208.59 138.83C208.176 138.997 207.668 139.081 207.066 139.081ZM207.436 137.942C207.909 137.942 208.338 137.848 208.723 137.661C209.108 137.473 209.394 137.212 209.581 136.876V135.915C208.94 135.5 208.225 135.293 207.436 135.293C206.864 135.293 206.434 135.406 206.148 135.633C205.872 135.85 205.734 136.186 205.734 136.64C205.734 137.508 206.301 137.942 207.436 137.942ZM214.884 131.756H216.305V132.777C216.64 132.363 217.02 132.052 217.444 131.845C217.868 131.638 218.307 131.534 218.761 131.534C219.333 131.534 219.787 131.633 220.123 131.83C220.458 132.018 220.705 132.309 220.863 132.703C221.178 132.319 221.563 132.028 222.017 131.83C222.48 131.633 222.944 131.534 223.408 131.534C224.276 131.534 224.902 131.756 225.287 132.2C225.672 132.634 225.864 133.281 225.864 134.139V138.859H224.414V134.331C224.414 133.749 224.306 133.34 224.089 133.103C223.871 132.856 223.502 132.733 222.979 132.733C222.229 132.733 221.617 133.059 221.144 133.71C221.163 133.858 221.173 134.099 221.173 134.435V138.859H219.723V134.331C219.723 133.749 219.624 133.34 219.427 133.103C219.23 132.856 218.875 132.733 218.362 132.733C217.612 132.733 216.941 133.157 216.349 134.006V138.859H214.884V131.756ZM233.562 139.081C232.25 139.081 231.219 138.756 230.469 138.105C229.729 137.444 229.359 136.516 229.359 135.323C229.359 134.159 229.69 133.236 230.351 132.555C231.022 131.875 231.974 131.534 233.207 131.534C234.026 131.534 234.721 131.692 235.293 132.008C235.866 132.314 236.295 132.743 236.581 133.295C236.877 133.838 237.025 134.459 237.025 135.16V135.9H230.78C230.829 136.571 231.111 137.074 231.624 137.409C232.146 137.735 232.852 137.898 233.74 137.898C234.193 137.898 234.652 137.858 235.116 137.779C235.58 137.69 235.989 137.577 236.344 137.439V138.637C236.028 138.766 235.609 138.869 235.086 138.948C234.573 139.037 234.065 139.081 233.562 139.081ZM235.619 134.849C235.599 134.178 235.377 133.66 234.953 133.295C234.539 132.92 233.947 132.733 233.177 132.733C232.428 132.733 231.845 132.925 231.431 133.31C231.017 133.695 230.8 134.208 230.78 134.849H235.619ZM240.153 139.022H241.958V128.486H240.153V127.213H243.483V140.28H240.153V139.022Z" fill="#1C7349"/>
<line x1="62.3076" y1="98.9108" x2="261.692" y2="98.9108" stroke="#1C7349" stroke-width="0.389423"/>
<line x1="62.3076" y1="183.434" x2="106.702" y2="183.434" stroke="#1C7349" stroke-width="0.389423"/>
<path d="M71.7487 185.532H72.1132V188.799H71.7487V185.532ZM74.1073 188.869C73.9266 188.869 73.749 188.853 73.5746 188.822C73.4001 188.791 73.2568 188.749 73.1446 188.696V188.35C73.4375 188.478 73.7521 188.542 74.0886 188.542C74.369 188.542 74.5746 188.497 74.7055 188.406C74.8394 188.316 74.9064 188.18 74.9064 188C74.9064 187.872 74.8784 187.771 74.8223 187.696C74.7693 187.621 74.6914 187.559 74.5886 187.509C74.4858 187.456 74.3082 187.378 74.0559 187.275C73.7475 187.151 73.5232 187.015 73.383 186.869C73.2459 186.719 73.1774 186.531 73.1774 186.303C73.1774 186.138 73.221 185.992 73.3082 185.864C73.3985 185.736 73.5247 185.638 73.6867 185.57C73.8487 185.498 74.0356 185.462 74.2475 185.462C74.4188 185.462 74.573 185.476 74.7101 185.504C74.8503 185.529 74.9874 185.571 75.1214 185.63V185.962C74.8597 185.847 74.5855 185.789 74.2989 185.789C74.0497 185.789 73.8612 185.835 73.7335 185.925C73.6057 186.015 73.5419 186.141 73.5419 186.303C73.5419 186.412 73.5683 186.506 73.6213 186.584C73.6743 186.662 73.7568 186.733 73.869 186.799C73.9842 186.864 74.1416 186.936 74.341 187.014C74.5653 187.101 74.7413 187.184 74.869 187.261C74.9967 187.336 75.0949 187.433 75.1634 187.551C75.2351 187.666 75.2709 187.816 75.2709 188C75.2709 188.277 75.1728 188.492 74.9765 188.645C74.7802 188.794 74.4905 188.869 74.1073 188.869ZM77.0024 188.869C76.8217 188.869 76.6441 188.853 76.4697 188.822C76.2952 188.791 76.1519 188.749 76.0398 188.696V188.35C76.3326 188.478 76.6473 188.542 76.9837 188.542C77.2641 188.542 77.4697 188.497 77.6006 188.406C77.7345 188.316 77.8015 188.18 77.8015 188C77.8015 187.872 77.7735 187.771 77.7174 187.696C77.6644 187.621 77.5866 187.559 77.4837 187.509C77.3809 187.456 77.2034 187.378 76.951 187.275C76.6426 187.151 76.4183 187.015 76.2781 186.869C76.141 186.719 76.0725 186.531 76.0725 186.303C76.0725 186.138 76.1161 185.992 76.2033 185.864C76.2937 185.736 76.4198 185.638 76.5818 185.57C76.7438 185.498 76.9308 185.462 77.1426 185.462C77.314 185.462 77.4682 185.476 77.6052 185.504C77.7454 185.529 77.8825 185.571 78.0165 185.63V185.962C77.7548 185.847 77.4806 185.789 77.194 185.789C76.9448 185.789 76.7563 185.835 76.6286 185.925C76.5008 186.015 76.437 186.141 76.437 186.303C76.437 186.412 76.4635 186.506 76.5164 186.584C76.5694 186.662 76.6519 186.733 76.7641 186.799C76.8794 186.864 77.0367 186.936 77.2361 187.014C77.4604 187.101 77.6364 187.184 77.7641 187.261C77.8919 187.336 77.99 187.433 78.0585 187.551C78.1302 187.666 78.166 187.816 78.166 188C78.166 188.277 78.0679 188.492 77.8716 188.645C77.6753 188.794 77.3856 188.869 77.0024 188.869ZM80.4731 188.869C80.0431 188.869 79.7176 188.76 79.4964 188.542C79.2783 188.324 79.1693 188.02 79.1693 187.631V185.532H79.5338V187.659C79.5338 187.955 79.6163 188.176 79.7814 188.322C79.9466 188.469 80.1771 188.542 80.4731 188.542C80.769 188.542 80.9996 188.469 81.1647 188.322C81.3298 188.176 81.4123 187.955 81.4123 187.659V185.532H81.7768V187.631C81.7768 188.02 81.6662 188.324 81.4451 188.542C81.227 188.76 80.903 188.869 80.4731 188.869ZM82.8772 185.532H84.9801V185.841H83.2417V187.009H84.5455V187.317H83.2417V188.49H84.9801V188.799H82.8772V185.532ZM86.0097 185.532H87.019C87.368 185.532 87.6702 185.598 87.9256 185.729C88.1842 185.859 88.382 186.046 88.5191 186.289C88.6562 186.532 88.7247 186.819 88.7247 187.149C88.7247 187.694 88.5689 188.106 88.2574 188.383C87.9459 188.66 87.5082 188.799 86.9443 188.799H86.0097V185.532ZM86.9209 188.49C87.4131 188.49 87.7761 188.378 88.0097 188.154C88.2434 187.927 88.3602 187.592 88.3602 187.149C88.3602 186.738 88.2465 186.417 88.0191 186.187C87.7917 185.956 87.4568 185.841 87.0144 185.841H86.3742V188.49H86.9209ZM91.9961 185.532H93.4448C93.7283 185.532 93.9448 185.607 94.0943 185.757C94.2439 185.903 94.3186 186.12 94.3186 186.406C94.3186 186.574 94.2797 186.721 94.2018 186.845C94.1239 186.967 94.0211 187.057 93.8934 187.117C94.2517 187.21 94.4308 187.467 94.4308 187.888C94.4308 188.071 94.3903 188.233 94.3093 188.374C94.2314 188.511 94.1224 188.617 93.9822 188.691C93.8451 188.763 93.6925 188.799 93.5242 188.799H91.9961V185.532ZM93.4167 186.972C93.5912 186.972 93.7236 186.925 93.814 186.831C93.9074 186.735 93.9541 186.596 93.9541 186.416C93.9541 186.21 93.909 186.064 93.8186 185.976C93.7283 185.886 93.5819 185.841 93.3794 185.841H92.3606V186.972H93.4167ZM93.4448 188.49C93.6504 188.49 93.8046 188.444 93.9074 188.35C94.0133 188.257 94.0663 188.099 94.0663 187.878C94.0663 187.663 94.0118 187.511 93.9027 187.42C93.7937 187.327 93.6239 187.28 93.3934 187.28H92.3606V188.49H93.4448ZM96.1992 187.56L95.0123 185.532H95.4001L96.3815 187.229L97.3675 185.532H97.7507L96.5637 187.56V188.799H96.1992V187.56Z" fill="#1C7349"/>
<path d="M69.5295 176.555H70.4688V176.863H69.894V180.377H70.4688V180.681H69.5295V176.555ZM71.4502 176.966H73.5531V177.274H71.8147V178.443H73.1185V178.751H71.8147V180.232H71.4502V176.966ZM75.7672 180.303C75.3373 180.303 75.0117 180.193 74.7905 179.975C74.5724 179.757 74.4634 179.454 74.4634 179.064V176.966H74.8279V179.092C74.8279 179.388 74.9105 179.609 75.0756 179.756C75.2407 179.902 75.4712 179.975 75.7672 179.975C76.0632 179.975 76.2937 179.902 76.4588 179.756C76.6239 179.609 76.7065 179.388 76.7065 179.092V176.966H77.071V179.064C77.071 179.454 76.9604 179.757 76.7392 179.975C76.5211 180.193 76.1971 180.303 75.7672 180.303ZM78.1714 176.966H78.5359V179.924H80.2743V180.232H78.1714V176.966ZM81.1852 176.966H81.5497V179.924H83.288V180.232H81.1852V176.966ZM84.1989 176.966H84.5494L86.3485 179.611V176.966H86.713V180.232H86.3626L84.5634 177.583V180.232H84.1989V176.966ZM89.0437 176.966H89.3848L90.6886 180.232H90.3147L89.9643 179.359H88.4595L88.1137 180.232H87.7399L89.0437 176.966ZM89.8615 179.05L89.2119 177.387L88.567 179.05H89.8615ZM91.6001 176.966H91.9739L93.2076 179.662L94.4413 176.966H94.8152V180.232H94.4553V177.709L93.3011 180.232H93.1142L91.9599 177.709V180.232H91.6001V176.966ZM95.9373 176.966H98.0402V177.274H96.3018V178.443H97.6056V178.751H96.3018V179.924H98.0402V180.232H95.9373V176.966ZM98.9295 180.377H99.4996V176.863H98.9295V176.555H99.8688V180.681H98.9295V180.377Z" fill="#1C7349"/>
<line x1="217.298" y1="183.434" x2="261.692" y2="183.434" stroke="#1C7349" stroke-width="0.389423"/>
<path d="M225.462 185.532H225.827V188.799H225.462V185.532ZM227.821 188.869C227.64 188.869 227.463 188.853 227.288 188.822C227.114 188.791 226.971 188.749 226.858 188.696V188.35C227.151 188.478 227.466 188.542 227.802 188.542C228.083 188.542 228.288 188.497 228.419 188.406C228.553 188.316 228.62 188.18 228.62 188C228.62 187.872 228.592 187.771 228.536 187.696C228.483 187.621 228.405 187.559 228.302 187.509C228.2 187.456 228.022 187.378 227.77 187.275C227.461 187.151 227.237 187.015 227.097 186.869C226.96 186.719 226.891 186.531 226.891 186.303C226.891 186.138 226.935 185.992 227.022 185.864C227.112 185.736 227.239 185.638 227.401 185.57C227.563 185.498 227.749 185.462 227.961 185.462C228.133 185.462 228.287 185.476 228.424 185.504C228.564 185.529 228.701 185.571 228.835 185.63V185.962C228.573 185.847 228.299 185.789 228.013 185.789C227.763 185.789 227.575 185.835 227.447 185.925C227.32 186.015 227.256 186.141 227.256 186.303C227.256 186.412 227.282 186.506 227.335 186.584C227.388 186.662 227.471 186.733 227.583 186.799C227.698 186.864 227.855 186.936 228.055 187.014C228.279 187.101 228.455 187.184 228.583 187.261C228.711 187.336 228.809 187.433 228.877 187.551C228.949 187.666 228.985 187.816 228.985 188C228.985 188.277 228.887 188.492 228.69 188.645C228.494 188.794 228.204 188.869 227.821 188.869ZM230.716 188.869C230.536 188.869 230.358 188.853 230.183 188.822C230.009 188.791 229.866 188.749 229.754 188.696V188.35C230.046 188.478 230.361 188.542 230.698 188.542C230.978 188.542 231.184 188.497 231.314 188.406C231.448 188.316 231.515 188.18 231.515 188C231.515 187.872 231.487 187.771 231.431 187.696C231.378 187.621 231.3 187.559 231.198 187.509C231.095 187.456 230.917 187.378 230.665 187.275C230.356 187.151 230.132 187.015 229.992 186.869C229.855 186.719 229.786 186.531 229.786 186.303C229.786 186.138 229.83 185.992 229.917 185.864C230.007 185.736 230.134 185.638 230.296 185.57C230.458 185.498 230.645 185.462 230.856 185.462C231.028 185.462 231.182 185.476 231.319 185.504C231.459 185.529 231.596 185.571 231.73 185.63V185.962C231.469 185.847 231.194 185.789 230.908 185.789C230.659 185.789 230.47 185.835 230.342 185.925C230.215 186.015 230.151 186.141 230.151 186.303C230.151 186.412 230.177 186.506 230.23 186.584C230.283 186.662 230.366 186.733 230.478 186.799C230.593 186.864 230.75 186.936 230.95 187.014C231.174 187.101 231.35 187.184 231.478 187.261C231.606 187.336 231.704 187.433 231.772 187.551C231.844 187.666 231.88 187.816 231.88 188C231.88 188.277 231.782 188.492 231.585 188.645C231.389 188.794 231.099 188.869 230.716 188.869ZM234.187 188.869C233.757 188.869 233.431 188.76 233.21 188.542C232.992 188.324 232.883 188.02 232.883 187.631V185.532H233.248V187.659C233.248 187.955 233.33 188.176 233.495 188.322C233.66 188.469 233.891 188.542 234.187 188.542C234.483 188.542 234.713 188.469 234.878 188.322C235.044 188.176 235.126 187.955 235.126 187.659V185.532H235.491V187.631C235.491 188.02 235.38 188.324 235.159 188.542C234.941 188.76 234.617 188.869 234.187 188.869ZM236.591 185.532H238.694V185.841H236.956V187.009H238.259V187.317H236.956V188.49H238.694V188.799H236.591V185.532ZM241.966 185.532H242.975C243.324 185.532 243.626 185.598 243.882 185.729C244.141 185.859 244.338 186.046 244.475 186.289C244.613 186.532 244.681 186.819 244.681 187.149C244.681 187.694 244.525 188.106 244.214 188.383C243.902 188.66 243.464 188.799 242.901 188.799H241.966V185.532ZM242.877 188.49C243.369 188.49 243.732 188.378 243.966 188.154C244.2 187.927 244.317 187.592 244.317 187.149C244.317 186.738 244.203 186.417 243.975 186.187C243.748 185.956 243.413 185.841 242.971 185.841H242.33V188.49H242.877ZM246.615 185.532H246.956L248.259 188.799H247.886L247.535 187.925H246.03L245.685 188.799H245.311L246.615 185.532ZM247.432 187.617L246.783 185.953L246.138 187.617H247.432ZM249.565 185.841H248.519V185.532H250.977V185.841H249.93V188.799H249.565V185.841ZM251.911 185.532H254.014V185.841H252.275V187.009H253.579V187.317H252.275V188.49H254.014V188.799H251.911V185.532Z" fill="#1C7349"/>
<path d="M224.05 176.555H224.989V176.863H224.415V180.377H224.989V180.681H224.05V176.555ZM225.971 176.966H226.98C227.329 176.966 227.631 177.031 227.887 177.162C228.145 177.293 228.343 177.48 228.48 177.723C228.617 177.966 228.686 178.253 228.686 178.583C228.686 179.128 228.53 179.539 228.219 179.817C227.907 180.094 227.469 180.232 226.905 180.232H225.971V176.966ZM226.882 179.924C227.374 179.924 227.737 179.812 227.971 179.588C228.205 179.36 228.321 179.025 228.321 178.583C228.321 178.172 228.208 177.851 227.98 177.62C227.753 177.39 227.418 177.274 226.976 177.274H226.335V179.924H226.882ZM229.646 176.966H230.656C231.005 176.966 231.307 177.031 231.562 177.162C231.821 177.293 232.019 177.48 232.156 177.723C232.293 177.966 232.361 178.253 232.361 178.583C232.361 179.128 232.206 179.539 231.894 179.817C231.583 180.094 231.145 180.232 230.581 180.232H229.646V176.966ZM230.558 179.924C231.05 179.924 231.413 179.812 231.646 179.588C231.88 179.36 231.997 179.025 231.997 178.583C231.997 178.172 231.883 177.851 231.656 177.62C231.428 177.39 231.093 177.274 230.651 177.274H230.011V179.924H230.558ZM234.629 176.896H235.007L233.675 180.232H233.297L234.629 176.896ZM236.034 176.966H236.408L237.642 179.662L238.876 176.966H239.249V180.232H238.89V177.709L237.735 180.232H237.548L236.394 177.709V180.232H236.034V176.966ZM240.372 176.966H240.745L241.979 179.662L243.213 176.966H243.587V180.232H243.227V177.709L242.073 180.232H241.886L240.731 177.709V180.232H240.372V176.966ZM245.947 176.896H246.326L244.994 180.232H244.615L245.947 176.896ZM248.446 178.994L247.259 176.966H247.647L248.629 178.662L249.615 176.966H249.998L248.811 178.994V180.232H248.446V178.994ZM251.953 178.994L250.766 176.966H251.154L252.135 178.662L253.121 176.966H253.505L252.318 178.994V180.232H251.953V178.994ZM254.39 180.377H254.96V176.863H254.39V176.555H255.33V180.681H254.39V180.377Z" fill="#1C7349"/>
<circle cx="162" cy="23" r="12" fill="#ECF8F6"/>
<path d="M152.593 20.6447H153.079V24.5888H155.397V25H152.593V20.6447ZM158.427 25.0935C157.999 25.0935 157.611 25 157.262 24.8131C156.917 24.622 156.645 24.3541 156.446 24.0093C156.246 23.6645 156.146 23.2699 156.146 22.8255C156.146 22.381 156.246 21.9864 156.446 21.6416C156.645 21.2968 156.917 21.0289 157.262 20.8378C157.607 20.6468 157.995 20.5512 158.427 20.5512C158.859 20.5512 159.247 20.6468 159.592 20.8378C159.937 21.0289 160.209 21.2968 160.408 21.6416C160.608 21.9864 160.707 22.381 160.707 22.8255C160.707 23.2699 160.608 23.6645 160.408 24.0093C160.209 24.3541 159.935 24.622 159.586 24.8131C159.241 25 158.855 25.0935 158.427 25.0935ZM158.427 24.6573C158.759 24.6573 159.062 24.5825 159.337 24.433C159.611 24.2835 159.827 24.0716 159.985 23.7975C160.142 23.5192 160.221 23.1952 160.221 22.8255C160.221 22.4599 160.142 22.1401 159.985 21.8659C159.831 21.5876 159.617 21.3737 159.343 21.2242C159.073 21.0705 158.772 20.9936 158.439 20.9936C158.103 20.9936 157.798 21.0684 157.523 21.2179C157.249 21.3675 157.031 21.5814 156.869 21.8597C156.711 22.138 156.632 22.4599 156.632 22.8255C156.632 23.1952 156.711 23.5192 156.869 23.7975C157.027 24.0716 157.243 24.2835 157.517 24.433C157.791 24.5825 158.095 24.6573 158.427 24.6573ZM164.149 25.0935C163.709 25.0935 163.314 25 162.965 24.8131C162.621 24.6262 162.351 24.3624 162.155 24.0218C161.96 23.677 161.862 23.2782 161.862 22.8255C161.862 22.3727 161.96 21.976 162.155 21.6354C162.351 21.2906 162.621 21.0248 162.965 20.8378C163.314 20.6468 163.709 20.5512 164.149 20.5512C164.751 20.5512 165.25 20.7091 165.645 21.0248V21.4983C165.271 21.1618 164.785 20.9936 164.187 20.9936C163.833 20.9936 163.518 21.0684 163.239 21.2179C162.961 21.3675 162.743 21.5814 162.585 21.8597C162.427 22.1338 162.348 22.4558 162.348 22.8255C162.348 23.1952 162.427 23.5192 162.585 23.7975C162.743 24.0716 162.959 24.2835 163.233 24.433C163.512 24.5825 163.825 24.6573 164.174 24.6573C164.378 24.6573 164.575 24.6345 164.766 24.5888C164.957 24.5389 165.115 24.4745 165.24 24.3956V23.056H164.324V22.6448H165.726V24.6012C165.522 24.7715 165.289 24.8962 165.028 24.9751C164.77 25.054 164.477 25.0935 164.149 25.0935ZM169.25 25.0935C168.823 25.0935 168.434 25 168.085 24.8131C167.741 24.622 167.468 24.3541 167.269 24.0093C167.07 23.6645 166.97 23.2699 166.97 22.8255C166.97 22.381 167.07 21.9864 167.269 21.6416C167.468 21.2968 167.741 21.0289 168.085 20.8378C168.43 20.6468 168.818 20.5512 169.25 20.5512C169.682 20.5512 170.071 20.6468 170.416 20.8378C170.76 21.0289 171.032 21.2968 171.232 21.6416C171.431 21.9864 171.531 22.381 171.531 22.8255C171.531 23.2699 171.431 23.6645 171.232 24.0093C171.032 24.3541 170.758 24.622 170.409 24.8131C170.065 25 169.678 25.0935 169.25 25.0935ZM169.25 24.6573C169.583 24.6573 169.886 24.5825 170.16 24.433C170.434 24.2835 170.65 24.0716 170.808 23.7975C170.966 23.5192 171.045 23.1952 171.045 22.8255C171.045 22.4599 170.966 22.1401 170.808 21.8659C170.654 21.5876 170.441 21.3737 170.166 21.2242C169.896 21.0705 169.595 20.9936 169.263 20.9936C168.926 20.9936 168.621 21.0684 168.347 21.2179C168.073 21.3675 167.855 21.5814 167.693 21.8597C167.535 22.138 167.456 22.4599 167.456 22.8255C167.456 23.1952 167.535 23.5192 167.693 23.7975C167.851 24.0716 168.067 24.2835 168.341 24.433C168.615 24.5825 168.918 24.6573 169.25 24.6573Z" fill="#222222"/>
<g opacity="0.9">
<path d="M223 11.998C223 6.4752 227.477 1.99805 233 1.99805H323.839V32.998H233C227.477 32.998 223 28.5209 223 22.998V11.998Z" fill="#606060"/>
<path d="M237.576 13.418C238.191 13.418 238.72 13.5264 239.162 13.743C239.613 13.9597 239.964 14.2674 240.215 14.666C240.466 15.0647 240.592 15.5457 240.592 16.109C240.592 16.6637 240.466 17.1447 240.215 17.552C239.964 17.9507 239.613 18.2584 239.162 18.475C238.72 18.6917 238.191 18.8 237.576 18.8H235.665V21.998H234.274V13.418H237.576ZM237.355 17.604C237.97 17.604 238.421 17.4784 238.707 17.227C239.002 16.967 239.149 16.5944 239.149 16.109C239.149 15.615 239.002 15.2424 238.707 14.991C238.421 14.731 237.97 14.601 237.355 14.601H235.665V17.604H237.355ZM242.177 21.998V15.498H243.36L243.49 16.668C243.664 16.2434 243.919 15.9227 244.257 15.706C244.604 15.4807 245.029 15.368 245.531 15.368C245.661 15.368 245.791 15.381 245.921 15.407C246.051 15.4244 246.16 15.4547 246.246 15.498L246.051 16.72C245.956 16.6854 245.848 16.6594 245.726 16.642C245.614 16.616 245.458 16.603 245.258 16.603C244.99 16.603 244.725 16.6767 244.465 16.824C244.205 16.9627 243.989 17.175 243.815 17.461C243.651 17.747 243.568 18.111 243.568 18.553V21.998H242.177ZM250.203 22.128C249.553 22.128 248.981 21.9937 248.487 21.725C247.993 21.4564 247.607 21.0707 247.33 20.568C247.061 20.0567 246.927 19.45 246.927 18.748C246.927 18.046 247.061 17.4437 247.33 16.941C247.607 16.4297 247.989 16.0397 248.474 15.771C248.959 15.5024 249.51 15.368 250.125 15.368C250.758 15.368 251.295 15.498 251.737 15.758C252.179 16.018 252.517 16.3734 252.751 16.824C252.985 17.2747 253.102 17.786 253.102 18.358C253.102 18.514 253.098 18.6614 253.089 18.8C253.08 18.9387 253.067 19.06 253.05 19.164H247.824V18.098H252.439L251.75 18.306C251.75 17.7167 251.603 17.266 251.308 16.954C251.013 16.6334 250.61 16.473 250.099 16.473C249.726 16.473 249.401 16.5597 249.124 16.733C248.847 16.9064 248.634 17.1664 248.487 17.513C248.34 17.851 248.266 18.267 248.266 18.761C248.266 19.2464 248.344 19.658 248.5 19.996C248.656 20.334 248.877 20.5897 249.163 20.763C249.449 20.9364 249.787 21.023 250.177 21.023C250.61 21.023 250.961 20.9407 251.23 20.776C251.499 20.6114 251.711 20.3817 251.867 20.087L252.972 20.607C252.816 20.919 252.604 21.192 252.335 21.426C252.075 21.6514 251.763 21.8247 251.399 21.946C251.035 22.0674 250.636 22.128 250.203 22.128ZM254.807 21.998V15.498H256.042L256.107 16.59C256.332 16.174 256.631 15.8664 257.004 15.667C257.385 15.4677 257.788 15.368 258.213 15.368C258.681 15.368 259.11 15.4764 259.5 15.693C259.898 15.901 260.197 16.2174 260.397 16.642C260.535 16.356 260.726 16.1177 260.969 15.927C261.211 15.7364 261.48 15.5977 261.775 15.511C262.069 15.4157 262.36 15.368 262.646 15.368C263.062 15.368 263.452 15.4547 263.816 15.628C264.18 15.8014 264.474 16.0657 264.7 16.421C264.925 16.7764 265.038 17.2314 265.038 17.786V21.998H263.647V18.007C263.647 17.4784 263.521 17.097 263.27 16.863C263.018 16.629 262.698 16.512 262.308 16.512C262.004 16.512 261.723 16.5857 261.463 16.733C261.211 16.8804 261.008 17.1014 260.852 17.396C260.696 17.682 260.618 18.0374 260.618 18.462V21.998H259.227V18.007C259.227 17.4784 259.101 17.097 258.85 16.863C258.598 16.629 258.278 16.512 257.888 16.512C257.628 16.512 257.368 16.5814 257.108 16.72C256.848 16.8587 256.631 17.0754 256.458 17.37C256.284 17.6647 256.198 18.0547 256.198 18.54V21.998H254.807ZM267.797 14.406C267.493 14.406 267.259 14.3324 267.095 14.185C266.939 14.029 266.861 13.8124 266.861 13.535C266.861 13.2577 266.939 13.0454 267.095 12.898C267.259 12.7507 267.493 12.677 267.797 12.677C268.091 12.677 268.317 12.7507 268.473 12.898C268.637 13.0454 268.72 13.2577 268.72 13.535C268.72 13.8124 268.637 14.029 268.473 14.185C268.317 14.3324 268.091 14.406 267.797 14.406ZM268.486 15.498V21.998H267.095V15.498H268.486ZM272.924 22.128C272.499 22.128 272.105 22.05 271.741 21.894C271.386 21.738 271.1 21.4867 270.883 21.14C270.666 20.7934 270.558 20.3427 270.558 19.788V15.498H271.949V19.437C271.949 20.0264 272.075 20.4337 272.326 20.659C272.577 20.8757 272.928 20.984 273.379 20.984C273.596 20.984 273.804 20.9494 274.003 20.88C274.211 20.802 274.397 20.685 274.562 20.529C274.727 20.3644 274.852 20.1564 274.939 19.905C275.034 19.6537 275.082 19.359 275.082 19.021V15.498H276.473V21.998H275.251L275.186 20.945C274.961 21.3524 274.657 21.6514 274.276 21.842C273.895 22.0327 273.444 22.128 272.924 22.128ZM278.594 21.998V15.498H279.829L279.894 16.59C280.119 16.174 280.418 15.8664 280.791 15.667C281.172 15.4677 281.575 15.368 282 15.368C282.468 15.368 282.897 15.4764 283.287 15.693C283.686 15.901 283.985 16.2174 284.184 16.642C284.323 16.356 284.513 16.1177 284.756 15.927C284.999 15.7364 285.267 15.5977 285.562 15.511C285.857 15.4157 286.147 15.368 286.433 15.368C286.849 15.368 287.239 15.4547 287.603 15.628C287.967 15.8014 288.262 16.0657 288.487 16.421C288.712 16.7764 288.825 17.2314 288.825 17.786V21.998H287.434V18.007C287.434 17.4784 287.308 17.097 287.057 16.863C286.806 16.629 286.485 16.512 286.095 16.512C285.792 16.512 285.51 16.5857 285.25 16.733C284.999 16.8804 284.795 17.1014 284.639 17.396C284.483 17.682 284.405 18.0374 284.405 18.462V21.998H283.014V18.007C283.014 17.4784 282.888 17.097 282.637 16.863C282.386 16.629 282.065 16.512 281.675 16.512C281.415 16.512 281.155 16.5814 280.895 16.72C280.635 16.8587 280.418 17.0754 280.245 17.37C280.072 17.6647 279.985 18.0547 279.985 18.54V21.998H278.594Z" fill="white"/>
<path d="M311.557 21.4021V21.5413C311.557 21.7936 311.353 21.9983 311.1 21.9983H302.74C302.487 21.9983 302.283 21.7936 302.283 21.5413V21.4021C302.283 21.1498 302.487 20.9453 302.74 20.9453H311.1C311.353 20.9453 311.557 21.1498 311.557 21.4021Z" fill="#FFC035"/>
<path opacity="0.2" d="M311.557 21.4021V21.5413C311.557 21.5937 311.549 21.6443 311.532 21.6912C311.47 21.5128 311.3 21.3846 311.1 21.3846H302.74C302.54 21.3846 302.37 21.5128 302.308 21.6912C302.292 21.6443 302.283 21.5937 302.283 21.5413V21.4021C302.283 21.1498 302.487 20.9453 302.74 20.9453H311.1C311.353 20.9453 311.557 21.1498 311.557 21.4021Z" fill="black"/>
<path d="M312.605 15.2755V15.2758L311.157 20.9454H302.683L301.234 15.2758V15.2755C301.5 15.2081 301.722 15.033 301.853 14.7997C302.274 14.9662 302.732 15.0569 303.212 15.0569C304.792 15.0569 306.14 14.0692 306.674 12.6783V12.6777C306.754 12.6924 306.836 12.7001 306.92 12.7001C307.004 12.7001 307.086 12.6924 307.165 12.6777V12.6783C307.699 14.0695 309.048 15.0569 310.628 15.0569C311.107 15.0569 311.566 14.9662 311.987 14.7997C312.117 15.033 312.34 15.2081 312.605 15.2755Z" fill="#FFC035"/>
<path d="M302.249 15.1961C302.118 15.4294 301.896 15.6044 301.63 15.6719C301.552 15.6918 301.47 15.7025 301.385 15.7025C300.839 15.7025 300.396 15.2599 300.396 14.7136C300.396 14.1673 300.839 13.7246 301.385 13.7246C301.932 13.7246 302.374 14.1673 302.374 14.7136C302.374 14.8889 302.329 15.0535 302.249 15.1961Z" fill="#FFC035"/>
<path d="M306.92 10.791C307.666 10.791 308.271 11.3959 308.271 12.142C308.271 12.8039 307.794 13.3551 307.165 13.4704C307.086 13.4851 307.004 13.4927 306.92 13.4927C306.836 13.4927 306.754 13.4851 306.674 13.4704C306.045 13.3551 305.569 12.8039 305.569 12.142C305.569 11.3959 306.174 10.791 306.92 10.791Z" fill="#F7BB38"/>
<path d="M311.59 15.1961C311.508 15.0487 311.465 14.8825 311.465 14.7136C311.465 14.1673 311.908 13.7246 312.454 13.7246C313 13.7246 313.443 14.1673 313.443 14.7136C313.443 15.2599 313 15.7025 312.454 15.7025C312.369 15.7025 312.287 15.6918 312.209 15.6719C311.943 15.6044 311.721 15.4294 311.59 15.1961Z" fill="#FFC035"/>
</g>
</g>
<rect x="1" y="-1" width="322" height="213.74" rx="3" transform="matrix(1 0 0 -1 0 213.74)" stroke="#19A68E" stroke-width="2"/>
<defs>
<clipPath id="clip0_1735_10692">
<rect width="324" height="215.74" rx="4" transform="matrix(1 0 0 -1 0 215.74)" fill="white"/>
</clipPath>
</defs>
</svg>
