<svg width="59" height="46" viewBox="0 0 59 46" fill="none" xmlns="http://www.w3.org/2000/svg">
<path d="M48.4031 12.0209C46.6215 8.00889 43.5467 4.68006 39.6499 2.54447C35.7531 0.408882 31.2492 -0.415648 26.8285 0.19723C22.4078 0.810108 18.3141 2.82658 15.1747 5.93766C12.0352 9.04873 10.0233 13.0828 9.44715 17.4216C6.66712 18.0741 4.22839 19.7043 2.5941 22.0028C0.9598 24.3013 0.243752 27.1079 0.581933 29.8897C0.920113 32.6715 2.28897 35.2347 4.42855 37.0926C6.56813 38.9504 9.32943 39.9736 12.1881 39.9677C12.9614 39.9677 13.7031 39.6666 14.2499 39.1307C14.7967 38.5948 15.1039 37.868 15.1039 37.1101C15.1039 36.3523 14.7967 35.6254 14.2499 35.0895C13.7031 34.5536 12.9614 34.2526 12.1881 34.2526C10.6414 34.2526 9.15806 33.6505 8.0644 32.5787C6.97074 31.5069 6.35633 30.0532 6.35633 28.5375C6.35633 27.0217 6.97074 25.5681 8.0644 24.4963C9.15806 23.4245 10.6414 22.8224 12.1881 22.8224C12.9614 22.8224 13.7031 22.5213 14.2499 21.9854C14.7967 21.4495 15.1039 20.7227 15.1039 19.9648C15.1114 16.5852 16.3411 13.3175 18.5746 10.7424C20.8081 8.16722 23.9008 6.45137 27.3032 5.89965C30.7056 5.34792 34.1974 5.99604 37.1583 7.72886C40.1192 9.46168 42.3574 12.167 43.4753 15.3642C43.642 15.8552 43.9416 16.2927 44.3422 16.6299C44.7427 16.9671 45.2292 17.1914 45.7497 17.2788C47.6918 17.6384 49.4525 18.6321 50.7446 20.0978C52.0368 21.5635 52.7844 23.4149 52.8656 25.3503C52.9467 27.2857 52.3567 29.1909 51.1916 30.7556C50.0265 32.3203 48.355 33.4522 46.4495 33.9668C45.6994 34.1563 45.0567 34.63 44.663 35.2838C44.2693 35.9376 44.1567 36.7179 44.3501 37.453C44.5434 38.1882 45.0268 38.8179 45.6939 39.2038C46.3611 39.5896 47.1573 39.6999 47.9074 39.5105C50.976 38.7158 53.6962 36.9615 55.6549 34.5139C57.6136 32.0664 58.7037 29.0593 58.7598 25.9493C58.8159 22.8393 57.8348 19.7964 55.9656 17.2825C54.0964 14.7687 51.4412 12.9213 48.4031 12.0209ZM31.7535 17.936C31.4762 17.6758 31.1492 17.4719 30.7913 17.3359C30.0814 17.0501 29.2851 17.0501 28.5752 17.3359C28.2173 17.4719 27.8903 17.6758 27.613 17.936L18.8654 26.5086C18.3163 27.0467 18.0079 27.7765 18.0079 28.5375C18.0079 29.2985 18.3163 30.0283 18.8654 30.5663C19.4145 31.1044 20.1592 31.4067 20.9357 31.4067C21.7122 31.4067 22.4569 31.1044 23.0059 30.5663L26.7674 26.8515V42.8252C26.7674 43.5831 27.0746 44.3099 27.6214 44.8458C28.1683 45.3817 28.9099 45.6828 29.6833 45.6828C30.4566 45.6828 31.1983 45.3817 31.7451 44.8458C32.2919 44.3099 32.5991 43.5831 32.5991 42.8252V26.8515L36.3606 30.5663C36.6317 30.8342 36.9542 31.0468 37.3095 31.1918C37.6648 31.3369 38.0459 31.4116 38.4309 31.4116C38.8158 31.4116 39.1969 31.3369 39.5522 31.1918C39.9076 31.0468 40.2301 30.8342 40.5011 30.5663C40.7744 30.3007 40.9913 29.9846 41.1394 29.6364C41.2874 29.2882 41.3636 28.9147 41.3636 28.5375C41.3636 28.1603 41.2874 27.7868 41.1394 27.4385C40.9913 27.0903 40.7744 26.7743 40.5011 26.5086L31.7535 17.936Z" fill="#19A68E"/>
</svg>
