<svg width="8" height="8" viewBox="0 0 8 8" fill="none" xmlns="http://www.w3.org/2000/svg">
<g clip-path="url(#clip0_3552_23473)">
<path d="M6.52388 7.47547C6.2573 7.66535 4.54686 6.46174 4.21927 6.4591C3.89168 6.45648 2.16197 7.63239 1.89851 7.43825C1.63505 7.24412 2.25444 5.25007 2.15573 4.9386C2.05702 4.62713 0.400937 3.35012 0.504675 3.04027C0.608436 2.73041 2.70168 2.70163 2.96826 2.51176C3.23483 2.32191 3.94103 0.356755 4.26864 0.359378C4.59621 0.362023 5.27051 2.33828 5.53397 2.53242C5.79743 2.72654 7.88997 2.78902 7.9887 3.10049C8.08741 3.41196 6.4109 4.66216 6.30714 4.97201C6.2034 5.28186 6.79045 7.2856 6.52388 7.47547Z" fill="url(#paint0_linear_3552_23473)"/>
</g>
<defs>
<linearGradient id="paint0_linear_3552_23473" x1="0.50001" y1="3.92759" x2="7.99289" y2="3.92759" gradientUnits="userSpaceOnUse">
<stop stop-color="#FCD635"/>
<stop offset="1" stop-color="#F7A928"/>
</linearGradient>
<clipPath id="clip0_3552_23473">
<rect width="8" height="8" fill="white"/>
</clipPath>
</defs>
</svg>
