<svg width="26" height="26" viewBox="0 0 26 26" fill="none" xmlns="http://www.w3.org/2000/svg">
    <rect width="26" height="26" rx="13" fill="#E6F1FE" />
    <g clip-path="url(#clip0_2125_18065)">
        <path d="M16.3333 18.5195H13.6666L10.7 20.3695C10.5999 20.4321 10.4835 20.468 10.3633 20.4734C10.2431 20.4789 10.1236 20.4536 10.0175 20.4004C9.91147 20.3471 9.82281 20.2679 9.76101 20.1711C9.69921 20.0743 9.6666 19.9636 9.66665 19.8508V18.5195C7.66665 18.5195 6.33331 17.2695 6.33331 15.3945V11.6445C6.33331 9.76953 7.66665 8.51953 9.66665 8.51953H16.3333C18.3333 8.51953 19.6666 9.76953 19.6666 11.6445V15.3945C19.6666 17.2695 18.3333 18.5195 16.3333 18.5195Z" stroke="black" stroke-width="1.5" stroke-miterlimit="10" stroke-linecap="round" stroke-linejoin="round" />
        <path d="M13 14.1016V13.9703C13 13.5453 13.28 13.3203 13.56 13.1391C13.8333 12.9641 14.1066 12.7391 14.1066 12.3266C14.1066 11.7516 13.6133 11.2891 13 11.2891C12.3866 11.2891 11.8933 11.7516 11.8933 12.3266M12.9966 15.5953H13.0033" stroke="black" stroke-width="1.5" stroke-linecap="round" stroke-linejoin="round" />
    </g>
    <defs>
        <clipPath id="clip0_2125_18065">
            <rect width="16" height="15" fill="white" transform="translate(5 7)" />
        </clipPath>
    </defs>
</svg>